<?xml version='1.0' encoding='UTF-8'?>
<svg xmlns="http://www.w3.org/2000/svg" xmlns:xlink="http://www.w3.org/1999/xlink" width="2163.55" height="2405.39" viewbox="0 0 2173.55 2415.39" version="1.1">
  <rect width="2163.55" height="2405.39" fill="rgb(255,255,255)"/>
  <g desc="Graph" transform="translate(-20,2479.78) scale(1,-1)">
    <g id="Edges" desc="This is the group of edges">
      <g id="0">
        <defs>
          <marker id="Mtgt0" markerUnits="strokeWidth" orient="auto" markerWidth="4" markerHeight="3" viewBox="0 0 10 10" refX="6.7" refY="5">
            <polyline points="0,0 10,5 0,10 1,5" fill="rgb(128,128,128)"/>
          </marker>
        </defs>
        <path d="M 187.883,284.388 S 187.883,284.388 183.969,289.921 180.364,295.651 177.13,301.558 174.308,307.631 171.918,313.869 169.967,320.274 168.449,326.853 167.353,333.612 166.662,340.56 166.355,347.704 166.409,355.051 166.8,362.605 167.504,370.367 168.498,378.338 169.758,386.515 171.262,394.892 172.988,403.462 174.918,412.214 177.031,421.136 179.31,430.214 181.737,439.434 184.297,448.777 186.973,458.226 189.75,467.763 192.615,477.369 195.554,487.025 198.554,496.711 201.601,506.41 204.684,516.104 207.792,525.775 210.911,535.407 214.033,544.985 217.146,554.495 220.241,563.924 223.307,573.261 226.338,582.497 229.323,591.622 232.256,600.63 235.129,609.515 237.936,618.273 240.673,626.902 243.332,635.4 245.912,643.767 248.407,652.003 250.814,660.111 253.133,668.095 255.361,675.958 257.497,683.705 259.541,691.342 261.494,698.875 263.356,706.312 265.13,713.66 266.818,720.927 268.422,728.12 269.946,735.249 271.395,742.321 272.772,749.346 274.083,756.331 275.334,763.285 276.531,770.216 277.68,777.131 278.789,784.038 279.867,790.944 280.92,797.853 281.957,804.771 282.989,811.703 284.023,818.652 285.07,825.619 286.139,832.606 287.24,839.612 288.382,846.634 289.576,853.671 290.829,860.715 292.151,867.761 293.548,874.799 295.027,881.819 296.593,888.809 298.249,895.755 299.996,902.64 301.832,909.447 303.756,916.158 305.759,922.752 307.833,929.207 309.965,935.503 312.138,941.616 314.334,947.525 316.528,953.207 318.695,958.642 320.806,963.812 322.828,968.698 324.728,973.285 326.471,977.562 328.024,981.52 329.354,985.152 330.433,988.456 331.238,991.43 331.755,994.076 331.983,996.396 331.935,998.388 331.935,998.388" fill="none" stroke-width="1.125" stroke-opacity="1" stroke="rgb(128,128,128)" marker-end="url(#Mtgt0)"/>
        <text x="260.526" y="-695.118" font-size="1" text-anchor="middle" transform="scale(1,-1)" stroke-width="0" fill="rgb(0,0,0)" fill-opacity="1">81</text>
      </g>
      <g id="1">
        <defs>
          <marker id="Mtgt1" markerUnits="strokeWidth" orient="auto" markerWidth="4" markerHeight="3" viewBox="0 0 10 10" refX="6.7" refY="5">
            <polyline points="0,0 10,5 0,10 1,5" fill="rgb(128,128,128)"/>
          </marker>
        </defs>
        <path d="M 1882.69,155.388 S 1882.69,155.388 1888.21,154.211 1893.17,153.195 1897.57,152.322 1901.4,151.573 1904.68,150.935 1907.41,150.393 1909.62,149.934 1911.33,149.546 1912.56,149.218 1913.33,148.94 1913.68,148.705 1913.63,148.503 1913.2,148.329 1912.44,148.176 1911.35,148.039 1909.98,147.915 1908.35,147.798 1906.48,147.688 1904.41,147.58 1902.14,147.473 1899.72,147.366 1897.15,147.257 1894.45,147.146 1891.65,147.033 1888.76,146.917 1885.8,146.799 1882.78,146.68 1879.7,146.559 1876.59,146.437 1873.45,146.316 1870.3,146.195 1867.12,146.077 1863.94,145.961 1860.75,145.849 1857.57,145.741 1854.39,145.639 1851.21,145.544 1848.03,145.455 1844.87,145.374 1841.7,145.302 1838.55,145.239 1835.39,145.185 1832.24,145.141 1829.08,145.108 1825.92,145.084 1822.76,145.072 1819.58,145.069 1816.4,145.078 1813.2,145.097 1809.99,145.126 1806.75,145.165 1803.5,145.214 1800.22,145.271 1796.92,145.338 1793.59,145.412 1790.23,145.494 1786.85,145.583 1783.43,145.678 1779.99,145.778 1776.52,145.883 1773.03,145.992 1769.51,146.103 1765.97,146.217 1762.41,146.331 1758.84,146.446 1755.26,146.561 1751.68,146.674 1748.09,146.786 1744.52,146.894 1740.97,147 1737.44,147.102 1733.95,147.199 1730.5,147.292 1727.12,147.381 1723.8,147.466 1720.56,147.546 1717.42,147.623 1714.38,147.697 1711.47,147.77 1708.7,147.843 1706.09,147.918 1703.64,147.997 1701.38,148.083 1699.33,148.18 1697.5,148.291 1695.9,148.421 1694.57,148.575 1693.5,148.759 1692.71,148.98 1692.23,149.246 1692.06,149.565 1692.21,149.946 1692.69,150.4 1693.52,150.939 1694.69,151.575 1696.2,152.322 1698.05,153.195 1700.24,154.211 1702.75,155.388 1702.75,155.388" fill="none" stroke-width="1.125" stroke-opacity="1" stroke="rgb(128,128,128)" marker-end="url(#Mtgt1)"/>
        <text x="1811.6" y="-145.11" font-size="1" text-anchor="middle" transform="scale(1,-1)" stroke-width="0" fill="rgb(0,0,0)" fill-opacity="1">1</text>
      </g>
      <g id="2">
        <g id="3">
          <defs>
            <marker id="Mtgt2" markerUnits="strokeWidth" orient="auto" markerWidth="4" markerHeight="3" viewBox="0 0 10 10" refX="6.7" refY="5">
              <polyline points="0,0 10,5 0,10 1,5" fill="rgb(128,128,128)"/>
            </marker>
          </defs>
          <path d="M 229.839,244.388 S 229.839,244.388 230.87,243.625 231.885,242.874 232.883,242.134 233.866,241.405 234.833,240.686 235.784,239.978 236.721,239.28 237.643,238.591 238.551,237.913 239.445,237.243 240.325,236.583 241.192,235.931 242.047,235.289 242.888,234.654 243.717,234.027 244.535,233.409 245.341,232.798 246.135,232.194 246.919,231.597 247.692,231.007 248.454,230.424 249.207,229.847 249.95,229.276 250.684,228.711 251.409,228.151 252.125,227.597 252.833,227.048 253.533,226.503 254.226,225.963 254.911,225.428 255.589,224.896 256.261,224.368 256.926,223.844 257.585,223.323 258.239,222.805 258.887,222.289 259.531,221.777 260.17,221.266 260.804,220.758 261.435,220.251 262.062,219.746 262.686,219.242 263.306,218.739 263.924,218.237 264.54,217.735 265.154,217.234 265.766,216.733 266.377,216.231 266.987,215.729 267.596,215.226 268.205,214.722 268.814,214.217 269.423,213.71 270.033,213.201 270.644,212.691 271.256,212.178 271.87,211.663 272.486,211.145 273.105,210.623 273.726,210.099 274.35,209.571 274.977,209.039 275.608,208.503 276.243,207.963 276.883,207.418 277.527,206.869 278.176,206.314 278.831,205.755 279.491,205.189 280.157,204.618 280.829,204.041 281.508,203.457 282.194,202.867 282.888,202.27 283.589,201.666 284.298,201.054 285.015,200.435 285.741,199.808 286.476,199.173 287.221,198.53 287.975,197.878 288.739,197.218 289.513,196.548 290.298,195.869 291.094,195.18 291.901,194.481 292.72,193.773 293.551,193.053 294.394,192.324 295.25,191.583 296.119,190.832 297.001,190.069 297.897,189.294 298.807,188.507 299.731,187.709 300.669,186.898 301.623,186.074 302.592,185.237 303.576,184.388 303.576,184.388" fill="none" stroke-width="1.125" stroke-opacity="1" stroke="rgb(128,128,128)" marker-end="url(#Mtgt2)"/>
          <text x="267.291" y="-215.477" font-size="1" text-anchor="middle" transform="scale(1,-1)" stroke-width="0" fill="rgb(0,0,0)" fill-opacity="1">162</text>
        </g>
        <g id="4">
          <defs>
            <marker id="Mtgt3" markerUnits="strokeWidth" orient="auto" markerWidth="4" markerHeight="3" viewBox="0 0 10 10" refX="6.7" refY="5">
              <polyline points="0,0 10,5 0,10 1,5" fill="rgb(128,128,128)"/>
            </marker>
          </defs>
          <path d="M 838.502,284.388 S 838.502,284.388 838.451,284.527 838.494,284.852 838.631,285.368 838.861,286.081 839.183,286.999 839.594,288.131 840.093,289.488 840.676,291.082 841.34,292.923 842.081,295.026 842.896,297.402 843.781,300.065 844.731,303.026 845.741,306.299 846.807,309.894 847.924,313.824 849.086,318.098 850.289,322.725 851.526,327.714 852.793,333.073 854.084,338.807 855.393,344.922 856.715,351.421 858.045,358.305 859.376,365.577 860.704,373.236 862.024,381.279 863.33,389.703 864.616,398.503 865.879,407.673 867.112,417.205 868.313,427.09 869.475,437.317 870.595,447.874 871.669,458.749 872.693,469.926 873.662,481.39 874.575,493.124 875.427,505.111 876.215,517.33 876.938,529.764 877.592,542.39 878.176,555.187 878.687,568.134 879.124,581.207 879.486,594.383 879.772,607.639 879.981,620.95 880.113,634.293 880.167,647.643 880.145,660.975 880.046,674.265 879.87,687.489 879.621,700.624 879.297,713.645 878.902,726.529 878.437,739.254 877.905,751.798 877.307,764.14 876.646,776.259 875.927,788.136 875.15,799.752 874.321,811.09 873.442,822.134 872.517,832.868 871.551,843.278 870.548,853.352 869.511,863.079 868.446,872.448 867.356,881.453 866.247,890.085 865.123,898.34 863.99,906.213 862.851,913.704 861.712,920.81 860.579,927.534 859.455,933.878 858.345,939.845 857.255,945.442 856.189,950.676 855.152,955.554 854.147,960.087 853.18,964.287 852.254,968.164 851.373,971.734 850.54,975.01 849.759,978.007 849.033,980.743 848.363,983.232 847.753,985.494 847.203,987.544 846.716,989.402 846.29,991.083 845.927,992.606 845.627,993.986 845.387,995.241 845.206,996.384 845.081,997.429 845.009,998.388 845.009,998.388" fill="none" stroke-width="1.125" stroke-opacity="1" stroke="rgb(128,128,128)" marker-end="url(#Mtgt3)"/>
          <text x="880.148" y="-640.968" font-size="1" text-anchor="middle" transform="scale(1,-1)" stroke-width="0" fill="rgb(0,0,0)" fill-opacity="1">48</text>
        </g>
        <g id="5">
          <defs>
            <marker id="Mtgt4" markerUnits="strokeWidth" orient="auto" markerWidth="4" markerHeight="3" viewBox="0 0 10 10" refX="6.7" refY="5">
              <polyline points="0,0 10,5 0,10 1,5" fill="rgb(128,128,128)"/>
            </marker>
          </defs>
          <path d="M 1059.11,2379.78 S 1059.11,2379.78 1059.05,2379.85 1058.96,2379.56 1058.8,2378.89 1058.56,2377.82 1058.18,2376.33 1057.66,2374.42 1056.96,2372.08 1056.07,2369.28 1054.96,2366.01 1053.62,2362.25 1052.04,2357.94 1050.21,2353.07 1048.13,2347.56 1045.79,2341.37 1043.19,2334.44 1040.34,2326.71 1037.24,2318.09 1033.89,2308.54 1030.32,2297.98 1026.53,2286.34 1022.53,2273.57 1018.35,2259.62 1014,2244.44 1009.5,2228 1004.87,2210.27 1000.13,2191.24 995.297,2170.9 990.398,2149.28 985.452,2126.4 980.479,2102.28 975.502,2077 970.539,2050.6 965.609,2023.16 960.732,1994.78 955.923,1965.54 951.201,1935.54 946.579,1904.91 942.072,1873.75 937.692,1842.18 933.45,1810.34 929.356,1778.34 925.419,1746.31 921.645,1714.38 918.04,1682.65 914.609,1651.26 911.354,1620.3 908.277,1589.89 905.379,1560.11 902.658,1531.06 900.114,1502.8 897.742,1475.42 895.539,1448.97 893.5,1423.49 891.619,1399.03 889.891,1375.61 888.308,1353.25 886.862,1331.95 885.545,1311.73 884.35,1292.56 883.266,1274.44 882.286,1257.34 881.399,1241.23 880.597,1226.07 879.872,1211.83 879.213,1198.47 878.613,1185.94 878.063,1174.19 877.556,1163.19 877.085,1152.87 876.643,1143.21 876.224,1134.15 875.823,1125.65 875.437,1117.67 875.062,1110.18 874.697,1103.14 874.339,1096.53 873.991,1090.31 873.653,1084.47 873.329,1078.99 873.023,1073.85 872.742,1069.05 872.492,1064.56 872.284,1060.39 872.129,1056.54 872.04,1053 872.032,1049.77 872.123,1046.85 872.333,1044.25 872.684,1041.97 873.2,1040.02 873.909,1038.39 874.84,1037.11 876.027,1036.16 877.504,1035.57 879.312,1035.34 881.489,1035.49 884.081,1036.03 887.134,1036.98 890.696,1038.39 890.696,1038.39" fill="none" stroke-width="1.125" stroke-opacity="1" stroke="rgb(128,128,128)" marker-end="url(#Mtgt4)"/>
          <text x="901.37" y="-1516.85" font-size="1" text-anchor="middle" transform="scale(1,-1)" stroke-width="0" fill="rgb(0,0,0)" fill-opacity="1">21</text>
        </g>
        <g id="6">
          <defs>
            <marker id="Mtgt5" markerUnits="strokeWidth" orient="auto" markerWidth="4" markerHeight="3" viewBox="0 0 10 10" refX="6.7" refY="5">
              <polyline points="0,0 10,5 0,10 1,5" fill="rgb(128,128,128)"/>
            </marker>
          </defs>
          <path d="M 1089.49,259.388 S 1089.49,259.388 1090.88,258.147 1092.09,257.185 1093.14,256.479 1094.03,256.012 1094.76,255.772 1095.34,255.747 1095.77,255.931 1096.05,256.319 1096.17,256.907 1096.16,257.692 1095.99,258.673 1095.68,259.85 1095.22,261.221 1094.62,262.788 1093.88,264.549 1093,266.506 1091.98,268.659 1090.82,271.009 1089.53,273.556 1088.11,276.302 1086.56,279.247 1084.88,282.392 1083.08,285.74 1081.15,289.291 1079.11,293.048 1076.95,297.014 1074.67,301.191 1072.28,305.582 1069.77,310.192 1067.15,315.026 1064.43,320.087 1061.6,325.381 1058.66,330.915 1055.61,336.694 1052.47,342.727 1049.22,349.02 1045.87,355.58 1042.43,362.418 1038.88,369.539 1035.25,376.954 1031.52,384.671 1027.71,392.697 1023.81,401.043 1019.83,409.715 1015.77,418.721 1011.64,428.068 1007.44,437.763 1003.18,447.809 998.854,458.213 994.48,468.975 990.06,480.098 985.6,491.581 981.108,503.423 976.591,515.618 972.056,528.161 967.511,541.043 962.964,554.254 958.422,567.779 953.894,581.603 949.388,595.708 944.911,610.07 940.471,624.666 936.075,639.469 931.732,654.448 927.447,669.571 923.228,684.803 919.08,700.104 915.01,715.435 911.022,730.753 907.122,746.013 903.314,761.171 899.602,776.176 895.989,790.983 892.478,805.541 889.072,819.802 885.773,833.717 882.584,847.239 879.506,860.322 876.54,872.922 873.689,884.998 870.954,896.512 868.337,907.431 865.84,917.726 863.466,927.372 861.216,936.353 859.095,944.656 857.106,952.276 855.253,959.217 853.54,965.486 851.974,971.103 850.557,976.09 849.296,980.482 848.194,984.315 847.256,987.636 846.484,990.494 845.878,992.943 845.435,995.039 845.15,996.836 845.009,998.388 845.009,998.388" fill="none" stroke-width="1.125" stroke-opacity="1" stroke="rgb(128,128,128)" marker-end="url(#Mtgt5)"/>
          <text x="996.672" y="-463.56" font-size="1" text-anchor="middle" transform="scale(1,-1)" stroke-width="0" fill="rgb(0,0,0)" fill-opacity="1">27</text>
        </g>
        <g id="7">
          <g id="8">
            <defs>
              <marker id="Mtgt6" markerUnits="strokeWidth" orient="auto" markerWidth="4" markerHeight="3" viewBox="0 0 10 10" refX="6.7" refY="5">
                <polyline points="0,0 10,5 0,10 1,5" fill="rgb(128,128,128)"/>
              </marker>
            </defs>
            <path d="M 362.963,294.388 S 362.963,294.388 366.17,292.83 370.479,291.472 375.578,290.262 381.236,289.156 387.282,288.113 393.593,287.1 400.087,286.091 406.71,285.063 413.43,284.001 420.233,282.898 427.117,281.747 434.086,280.551 441.149,279.314 448.319,278.044 455.608,276.753 463.027,275.452 470.586,274.157 478.292,272.884 486.15,271.647 494.16,270.463 502.323,269.347 510.632,268.314 519.083,267.375 527.664,266.543 536.367,265.829 545.178,265.239 554.085,264.782 563.072,264.462 572.127,264.283 581.233,264.246 590.378,264.351 599.549,264.598 608.732,264.984 617.917,265.505 627.094,266.157 636.255,266.933 645.392,267.828 654.5,268.833 663.575,269.941 672.616,271.143 681.621,272.43 690.591,273.791 699.528,275.216 708.435,276.694 717.316,278.214 726.175,279.764 735.018,281.33 743.851,282.901 752.679,284.463 761.509,286.001 770.347,287.503 779.197,288.953 788.067,290.338 796.959,291.642 805.877,292.851 814.825,293.951 823.805,294.928 832.816,295.769 841.86,296.46 850.934,296.991 860.036,297.351 869.162,297.531 878.307,297.522 887.464,297.32 896.626,296.92 905.783,296.321 914.926,295.523 924.044,294.528 933.123,293.343 942.152,291.974 951.115,290.433 959.997,288.731 968.781,286.884 977.451,284.909 985.989,282.826 994.374,280.654 1002.59,278.418 1010.61,276.141 1018.42,273.848 1025.99,271.564 1033.3,269.316 1040.32,267.129 1047.04,265.028 1053.42,263.038 1059.43,261.183 1065.06,259.485 1070.26,257.965 1075,256.641 1079.27,255.532 1083.02,254.653 1086.23,254.019 1088.86,253.644 1090.89,253.54 1092.29,253.721 1093.04,254.198 1093.14,254.985 1092.57,256.1 1091.34,257.56 1089.49,259.388 1089.49,259.388" fill="none" stroke-width="1.125" stroke-opacity="1" stroke="rgb(128,128,128)" marker-end="url(#Mtgt6)"/>
            <text x="757.094" y="-285.235" font-size="1" text-anchor="middle" transform="scale(1,-1)" stroke-width="0" fill="rgb(0,0,0)" fill-opacity="1">27</text>
          </g>
          <g id="9">
            <defs>
              <marker id="Mtgt7" markerUnits="strokeWidth" orient="auto" markerWidth="4" markerHeight="3" viewBox="0 0 10 10" refX="6.7" refY="5">
                <polyline points="0,0 10,5 0,10 1,5" fill="rgb(128,128,128)"/>
              </marker>
            </defs>
            <path d="M 845.009,998.388 S 845.009,998.388 845.15,996.836 845.435,995.039 845.878,992.943 846.484,990.494 847.256,987.636 848.194,984.315 849.296,980.482 850.557,976.09 851.974,971.103 853.54,965.486 855.253,959.217 857.106,952.276 859.095,944.656 861.216,936.353 863.466,927.372 865.84,917.726 868.337,907.431 870.954,896.512 873.689,884.998 876.54,872.922 879.506,860.322 882.584,847.239 885.773,833.717 889.072,819.802 892.478,805.541 895.989,790.983 899.602,776.176 903.314,761.171 907.122,746.013 911.022,730.753 915.01,715.435 919.08,700.104 923.228,684.803 927.447,669.571 931.732,654.448 936.075,639.469 940.471,624.666 944.911,610.07 949.388,595.708 953.894,581.603 958.422,567.779 962.964,554.254 967.511,541.043 972.056,528.161 976.591,515.618 981.108,503.423 985.6,491.581 990.06,480.098 994.48,468.975 998.854,458.213 1003.18,447.809 1007.44,437.763 1011.64,428.068 1015.77,418.721 1019.83,409.715 1023.81,401.043 1027.71,392.697 1031.52,384.671 1035.25,376.954 1038.88,369.539 1042.43,362.418 1045.87,355.58 1049.22,349.02 1052.47,342.727 1055.61,336.694 1058.66,330.915 1061.6,325.381 1064.43,320.087 1067.15,315.026 1069.77,310.192 1072.28,305.582 1074.67,301.191 1076.95,297.014 1079.11,293.048 1081.15,289.291 1083.08,285.74 1084.88,282.392 1086.56,279.247 1088.11,276.302 1089.53,273.556 1090.82,271.009 1091.98,268.659 1093,266.506 1093.88,264.549 1094.62,262.788 1095.22,261.221 1095.68,259.85 1095.99,258.673 1096.16,257.692 1096.17,256.907 1096.05,256.319 1095.77,255.931 1095.34,255.747 1094.76,255.772 1094.03,256.012 1093.14,256.479 1092.09,257.185 1090.88,258.147 1089.49,259.388 1089.49,259.388" fill="none" stroke-width="1.125" stroke-opacity="1" stroke="rgb(128,128,128)" marker-end="url(#Mtgt7)"/>
            <text x="996.672" y="-463.56" font-size="1" text-anchor="middle" transform="scale(1,-1)" stroke-width="0" fill="rgb(0,0,0)" fill-opacity="1">6</text>
          </g>
          <g id="10">
            <defs>
              <marker id="Mtgt8" markerUnits="strokeWidth" orient="auto" markerWidth="4" markerHeight="3" viewBox="0 0 10 10" refX="6.7" refY="5">
                <polyline points="0,0 10,5 0,10 1,5" fill="rgb(128,128,128)"/>
              </marker>
            </defs>
            <path d="M 458.223,234.388 S 458.223,234.388 458.424,237.393 458.574,240.244 458.662,242.947 458.678,245.508 458.614,247.933 458.465,250.229 458.225,252.4 457.89,254.454 457.456,256.393 456.922,258.225 456.285,259.953 455.546,261.583 454.704,263.119 453.759,264.566 452.712,265.927 451.565,267.207 450.319,268.41 448.977,269.539 447.541,270.599 446.013,271.592 444.397,272.523 442.694,273.393 440.908,274.207 439.042,274.968 437.099,275.677 435.081,276.338 432.993,276.953 430.837,277.526 428.616,278.057 426.333,278.55 423.991,279.006 421.592,279.428 419.14,279.817 416.637,280.175 414.086,280.504 411.488,280.805 408.848,281.081 406.167,281.332 403.447,281.559 400.691,281.765 397.901,281.949 395.08,282.114 392.229,282.26 389.351,282.388 386.449,282.499 383.524,282.594 380.578,282.673 377.616,282.738 374.638,282.789 371.648,282.826 368.649,282.85 365.643,282.861 362.633,282.861 359.624,282.849 356.618,282.825 353.618,282.791 350.63,282.746 347.657,282.691 344.704,282.626 341.774,282.552 338.874,282.468 336.009,282.375 333.183,282.273 330.403,282.164 327.675,282.046 325.005,281.92 322.4,281.788 319.868,281.649 317.415,281.503 315.049,281.352 312.778,281.196 310.609,281.036 308.553,280.872 306.617,280.705 304.809,280.536 303.14,280.367 301.617,280.199 300.252,280.032 299.052,279.868 298.027,279.709 297.187,279.557 296.542,279.413 296.099,279.279 295.869,279.158 295.861,279.051 296.082,278.963 296.542,278.894 297.248,278.849 298.207,278.831 299.426,278.844 300.911,278.89 302.667,278.974 304.699,279.102 307.01,279.276 309.602,279.503 312.475,279.788 315.63,280.136 319.065,280.554 322.775,281.048 322.775,281.048" fill="none" stroke-width="1.125" stroke-opacity="1" stroke="rgb(128,128,128)" marker-end="url(#Mtgt8)"/>
            <text x="373.144" y="-282.809" font-size="1" text-anchor="middle" transform="scale(1,-1)" stroke-width="0" fill="rgb(0,0,0)" fill-opacity="1">81</text>
          </g>
          <g id="11">
            <defs>
              <marker id="Mtgt9" markerUnits="strokeWidth" orient="auto" markerWidth="4" markerHeight="3" viewBox="0 0 10 10" refX="6.7" refY="5">
                <polyline points="0,0 10,5 0,10 1,5" fill="rgb(128,128,128)"/>
              </marker>
            </defs>
            <path d="M 1059.11,2379.78 S 1059.11,2379.78 1059.06,2379.81 1059.07,2379.22 1059.2,2377.77 1059.52,2375.18 1060.08,2371.19 1060.98,2365.53 1062.33,2357.93 1064.24,2348.19 1066.82,2336.12 1070.19,2321.59 1074.46,2304.51 1079.74,2284.83 1086.1,2262.57 1093.63,2237.77 1102.36,2210.52 1112.32,2180.95 1123.51,2149.23 1135.93,2115.53 1149.52,2080.07 1164.23,2043.08 1179.98,2004.8 1196.68,1965.49 1214.23,1925.38 1232.49,1884.74 1251.35,1843.81 1270.68,1802.82 1290.35,1762 1310.21,1721.57 1330.15,1681.71 1350.03,1642.61 1369.74,1604.43 1389.15,1567.29 1408.17,1531.32 1426.7,1496.62 1444.66,1463.26 1461.97,1431.31 1478.57,1400.8 1494.41,1371.76 1509.45,1344.18 1523.66,1318.08 1537.02,1293.41 1549.52,1270.15 1561.16,1248.26 1571.94,1227.68 1581.88,1208.35 1591,1190.21 1599.32,1173.18 1606.88,1157.19 1613.7,1142.17 1619.83,1128.05 1625.3,1114.75 1630.16,1102.19 1634.45,1090.32 1638.2,1079.05 1641.47,1068.33 1644.3,1058.09 1646.72,1048.29 1648.78,1038.87 1650.52,1029.78 1651.98,1020.98 1653.18,1012.44 1654.18,1004.12 1654.99,995.997 1655.64,988.044 1656.17,980.24 1656.6,972.57 1656.94,965.021 1657.23,957.58 1657.48,950.242 1657.69,943 1657.9,935.854 1658.09,928.803 1658.29,921.849 1658.49,914.997 1658.7,908.254 1658.91,901.629 1659.13,895.132 1659.34,888.777 1659.54,882.581 1659.71,876.561 1659.85,870.738 1659.94,865.134 1659.95,859.775 1659.88,854.688 1659.68,849.901 1659.34,845.444 1658.83,841.348 1658.11,837.641 1657.15,834.353 1655.91,831.508 1654.35,829.13 1652.42,827.233 1650.07,825.827 1647.24,824.91 1643.86,824.472 1639.87,824.488 1635.19,824.918 1629.72,825.708 1623.36,826.788 1623.36,826.788" fill="none" stroke-width="1.125" stroke-opacity="1" stroke="rgb(128,128,128)" marker-end="url(#Mtgt9)"/>
            <text x="1616.83" y="-1135.03" font-size="1" text-anchor="middle" transform="scale(1,-1)" stroke-width="0" fill="rgb(0,0,0)" fill-opacity="1">3</text>
          </g>
          <g id="12">
            <defs>
              <marker id="Mtgt10" markerUnits="strokeWidth" orient="auto" markerWidth="4" markerHeight="3" viewBox="0 0 10 10" refX="6.7" refY="5">
                <polyline points="0,0 10,5 0,10 1,5" fill="rgb(128,128,128)"/>
              </marker>
            </defs>
            <path d="M 485.452,234.388 S 485.452,234.388 489.967,237.031 495.042,239.169 500.608,240.915 506.603,242.362 512.97,243.586 519.659,244.651 526.62,245.608 533.812,246.499 541.194,247.356 548.729,248.205 556.385,249.064 564.13,249.948 571.938,250.866 579.784,251.824 587.647,252.828 595.508,253.878 603.35,254.976 611.162,256.12 618.931,257.31 626.65,258.543 634.311,259.818 641.91,261.132 649.445,262.482 656.916,263.867 664.322,265.282 671.666,266.727 678.952,268.198 686.183,269.691 693.365,271.205 700.503,272.735 707.603,274.278 714.673,275.831 721.718,277.388 728.746,278.945 735.763,280.497 742.776,282.039 749.79,283.562 756.813,285.063 763.849,286.532 770.903,287.963 777.98,289.348 785.083,290.679 792.215,291.947 799.38,293.145 806.578,294.263 813.812,295.293 821.081,296.227 828.385,297.058 835.724,297.776 843.095,298.377 850.498,298.851 857.928,299.195 865.383,299.403 872.859,299.471 880.352,299.395 887.855,299.174 895.365,298.806 902.875,298.291 910.378,297.632 917.869,296.829 925.338,295.887 932.78,294.811 940.186,293.607 947.548,292.282 954.857,290.843 962.104,289.301 969.28,287.666 976.375,285.949 983.379,284.161 990.283,282.316 997.075,280.426 1003.74,278.504 1010.28,276.566 1016.67,274.625 1022.91,272.694 1028.97,270.789 1034.86,268.922 1040.55,267.108 1046.03,265.359 1051.29,263.689 1056.31,262.109 1061.08,260.631 1065.59,259.266 1069.81,258.023 1073.73,256.913 1077.35,255.943 1080.63,255.122 1083.57,254.457 1086.14,253.956 1088.34,253.624 1090.15,253.468 1091.55,253.495 1092.54,253.71 1093.1,254.12 1093.23,254.733 1092.93,255.556 1092.2,256.599 1091.05,257.872 1089.49,259.388 1089.49,259.388" fill="none" stroke-width="1.125" stroke-opacity="1" stroke="rgb(128,128,128)" marker-end="url(#Mtgt10)"/>
            <text x="839.406" y="-298.088" font-size="1" text-anchor="middle" transform="scale(1,-1)" stroke-width="0" fill="rgb(0,0,0)" fill-opacity="1">27</text>
          </g>
          <g id="13">
            <defs>
              <marker id="Mtgt11" markerUnits="strokeWidth" orient="auto" markerWidth="4" markerHeight="3" viewBox="0 0 10 10" refX="6.7" refY="5">
                <polyline points="0,0 10,5 0,10 1,5" fill="rgb(128,128,128)"/>
              </marker>
            </defs>
            <path d="M 838.502,284.388 S 838.502,284.388 838.432,284.425 838.333,284.483 838.205,284.56 838.047,284.654 837.859,284.763 837.64,284.887 837.39,285.023 837.107,285.17 836.792,285.326 836.445,285.491 836.064,285.662 835.649,285.838 835.201,286.018 834.718,286.2 834.201,286.383 833.649,286.566 833.062,286.748 832.44,286.927 831.783,287.102 831.09,287.272 830.363,287.436 829.6,287.593 828.802,287.741 827.968,287.88 827.099,288.008 826.196,288.124 825.257,288.229 824.284,288.319 823.276,288.396 822.234,288.457 821.158,288.501 820.048,288.529 818.905,288.54 817.729,288.531 816.521,288.504 815.28,288.456 814.009,288.388 812.706,288.298 811.373,288.187 810.01,288.052 808.618,287.895 807.197,287.714 805.748,287.509 804.273,287.279 802.771,287.024 801.244,286.743 799.691,286.436 798.116,286.103 796.517,285.743 794.896,285.356 793.254,284.942 791.593,284.5 789.912,284.03 788.214,283.533 786.498,283.007 784.768,282.452 783.022,281.87 781.264,281.258 779.493,280.618 777.712,279.95 775.922,279.252 774.123,278.526 772.318,277.772 770.508,276.989 768.693,276.178 766.877,275.338 765.06,274.47 763.243,273.575 761.429,272.651 759.619,271.701 757.815,270.723 756.017,269.719 754.229,268.688 752.452,267.63 750.688,266.548 748.938,265.44 747.204,264.307 745.488,263.15 743.793,261.969 742.119,260.764 740.47,259.537 738.847,258.288 737.252,257.017 735.688,255.726 734.155,254.414 732.658,253.083 731.197,251.734 729.775,250.366 728.395,248.981 727.058,247.58 725.767,246.164 724.525,244.733 723.333,243.288 722.195,241.83 721.112,240.361 720.087,238.881 719.123,237.392 718.223,235.894 717.388,234.388 717.388,234.388" fill="none" stroke-width="1.125" stroke-opacity="1" stroke="rgb(128,128,128)" marker-end="url(#Mtgt11)"/>
            <text x="795.708" y="-285.552" font-size="1" text-anchor="middle" transform="scale(1,-1)" stroke-width="0" fill="rgb(0,0,0)" fill-opacity="1">48</text>
          </g>
          <g id="14">
            <defs>
              <marker id="Mtgt12" markerUnits="strokeWidth" orient="auto" markerWidth="4" markerHeight="3" viewBox="0 0 10 10" refX="6.7" refY="5">
                <polyline points="0,0 10,5 0,10 1,5" fill="rgb(128,128,128)"/>
              </marker>
            </defs>
            <path d="M 1059.11,2379.78 S 1059.11,2379.78 1059.05,2379.76 1059.09,2378.74 1059.25,2376.1 1059.57,2371.11 1060.04,2363.1 1060.66,2351.5 1061.42,2335.88 1062.3,2315.96 1063.29,2291.66 1064.39,2263 1065.59,2230.16 1066.89,2193.43 1068.3,2153.18 1069.85,2109.84 1071.56,2063.86 1073.46,2015.74 1075.6,1965.96 1078.02,1914.98 1080.76,1863.25 1083.89,1811.16 1087.45,1759.09 1091.52,1707.36 1096.13,1656.22 1101.35,1605.91 1107.23,1556.6 1113.81,1508.43 1121.14,1461.5 1129.24,1415.87 1138.15,1371.57 1147.88,1328.61 1158.44,1286.98 1169.84,1246.64 1182.06,1207.56 1195.08,1169.69 1208.89,1132.98 1223.43,1097.37 1238.68,1062.81 1254.59,1029.25 1271.09,996.635 1288.13,964.929 1305.66,934.094 1323.59,904.096 1341.87,874.908 1360.44,846.509 1379.22,818.88 1398.16,792.005 1417.18,765.871 1436.25,740.466 1455.29,715.78 1474.27,691.802 1493.14,668.518 1511.86,645.916 1530.39,623.981 1548.7,602.694 1566.77,582.037 1584.58,561.987 1602.09,542.521 1619.3,523.615 1636.19,505.24 1652.74,487.373 1668.95,469.985 1684.78,453.052 1700.24,436.551 1715.31,420.46 1729.96,404.76 1744.19,389.439 1757.97,374.485 1771.28,359.892 1784.11,345.659 1796.44,331.789 1808.24,318.291 1819.49,305.177 1830.18,292.464 1840.29,280.17 1849.81,268.318 1858.72,256.933 1867.02,246.04 1874.7,235.665 1881.77,225.832 1888.22,216.564 1894.06,207.882 1899.29,199.805 1903.94,192.345 1907.99,185.514 1911.46,179.317 1914.35,173.756 1916.65,168.828 1918.36,164.528 1919.45,160.847 1919.9,157.773 1919.64,155.293 1918.64,153.393 1916.81,152.06 1914.06,151.281 1910.3,151.043 1905.41,151.339 1899.27,152.161 1891.74,153.51 1882.69,155.388 1882.69,155.388" fill="none" stroke-width="1.125" stroke-opacity="1" stroke="rgb(128,128,128)" marker-end="url(#Mtgt12)"/>
            <text x="1464.79" y="-703.725" font-size="1" text-anchor="middle" transform="scale(1,-1)" stroke-width="0" fill="rgb(0,0,0)" fill-opacity="1">1</text>
          </g>
          <g id="15">
            <defs>
              <marker id="Mtgt13" markerUnits="strokeWidth" orient="auto" markerWidth="4" markerHeight="3" viewBox="0 0 10 10" refX="6.7" refY="5">
                <polyline points="0,0 10,5 0,10 1,5" fill="rgb(128,128,128)"/>
              </marker>
            </defs>
            <path d="M 784,1033.9 S 784,1033.9 789.17,1032.51 793.31,1031.29 796.525,1030.26 798.901,1029.43 800.507,1028.8 801.398,1028.38 801.615,1028.18 801.191,1028.18 800.147,1028.39 798.498,1028.8 796.255,1029.41 793.422,1030.2 790.002,1031.16 785.996,1032.28 781.405,1033.54 776.229,1034.94 770.47,1036.44 764.134,1038.04 757.225,1039.72 749.754,1041.46 741.733,1043.24 733.179,1045.05 724.11,1046.86 714.549,1048.67 704.521,1050.45 694.057,1052.19 683.188,1053.89 671.949,1055.52 660.375,1057.07 648.506,1058.54 636.382,1059.91 624.043,1061.18 611.532,1062.34 598.89,1063.38 586.159,1064.31 573.379,1065.12 560.59,1065.8 547.832,1066.36 535.139,1066.79 522.547,1067.11 510.088,1067.3 497.791,1067.37 485.683,1067.33 473.787,1067.19 462.124,1066.94 450.711,1066.58 439.562,1066.14 428.687,1065.61 418.095,1065 407.791,1064.31 397.775,1063.55 388.047,1062.74 378.604,1061.86 369.439,1060.94 360.544,1059.97 351.91,1058.97 343.525,1057.93 335.378,1056.87 327.454,1055.79 319.741,1054.68 312.224,1053.57 304.891,1052.45 297.726,1051.32 290.719,1050.19 283.858,1049.06 277.134,1047.93 270.537,1046.81 264.062,1045.71 257.704,1044.61 251.461,1043.53 245.334,1042.46 239.325,1041.42 233.438,1040.4 227.681,1039.4 222.065,1038.43 216.6,1037.49 211.301,1036.59 206.183,1035.72 201.265,1034.9 196.565,1034.13 192.103,1033.42 187.9,1032.76 183.977,1032.17 180.356,1031.66 177.057,1031.23 174.1,1030.89 171.506,1030.66 169.292,1030.53 167.476,1030.52 166.072,1030.64 165.095,1030.89 164.557,1031.29 164.47,1031.84 164.845,1032.55 165.694,1033.41 167.029,1034.43 168.865,1035.61 171.223,1036.93 174.13,1038.39 174.13,1038.39" fill="none" stroke-width="1.125" stroke-opacity="1" stroke="rgb(128,128,128)" marker-end="url(#Mtgt13)"/>
            <text x="412.916" y="-1064.66" font-size="1" text-anchor="middle" transform="scale(1,-1)" stroke-width="0" fill="rgb(0,0,0)" fill-opacity="1">1</text>
          </g>
          <g id="16">
            <g id="17">
              <defs>
                <marker id="Mtgt14" markerUnits="strokeWidth" orient="auto" markerWidth="4" markerHeight="3" viewBox="0 0 10 10" refX="6.7" refY="5">
                  <polyline points="0,0 10,5 0,10 1,5" fill="rgb(128,128,128)"/>
                </marker>
              </defs>
              <path d="M 287.453,712.388 S 287.453,712.388 286.936,711.985 286.413,711.543 285.884,711.064 285.347,710.55 284.803,710.003 284.25,709.424 283.688,708.814 283.115,708.177 282.533,707.512 281.939,706.823 281.334,706.109 280.716,705.374 280.086,704.619 279.443,703.844 278.786,703.052 278.116,702.244 277.431,701.421 276.731,700.585 276.017,699.737 275.287,698.879 274.542,698.011 273.782,697.135 273.005,696.253 272.212,695.365 271.403,694.473 270.578,693.578 269.736,692.68 268.878,691.782 268.004,690.884 267.113,689.987 266.205,689.092 265.281,688.201 264.341,687.314 263.384,686.432 262.411,685.556 261.423,684.687 260.419,683.826 259.399,682.973 258.364,682.13 257.315,681.297 256.25,680.475 255.172,679.665 254.079,678.867 252.973,678.082 251.854,677.311 250.723,676.554 249.579,675.812 248.424,675.085 247.258,674.374 246.081,673.68 244.895,673.002 243.699,672.342 242.495,671.699 241.283,671.075 240.064,670.469 238.838,669.881 237.607,669.313 236.37,668.764 235.13,668.234 233.887,667.725 232.642,667.235 231.395,666.765 230.148,666.316 228.902,665.887 227.657,665.478 226.414,665.09 225.176,664.722 223.942,664.375 222.715,664.048 221.494,663.742 220.281,663.455 219.078,663.189 217.886,662.943 216.706,662.717 215.539,662.51 214.386,662.322 213.25,662.154 212.131,662.004 211.03,661.873 209.95,661.76 208.891,661.665 207.855,661.587 206.844,661.526 205.86,661.481 204.903,661.453 203.975,661.44 203.078,661.441 202.214,661.457 201.384,661.487 200.591,661.53 199.835,661.585 199.119,661.653 198.444,661.731 197.813,661.819 197.227,661.917 196.687,662.024 196.197,662.138 195.758,662.26 195.371,662.388 195.371,662.388" fill="none" stroke-width="1.125" stroke-opacity="1" stroke="rgb(128,128,128)" marker-end="url(#Mtgt14)"/>
              <text x="246.671" y="-674.026" font-size="1" text-anchor="middle" transform="scale(1,-1)" stroke-width="0" fill="rgb(0,0,0)" fill-opacity="1">147</text>
            </g>
            <g id="18">
              <defs>
                <marker id="Mtgt15" markerUnits="strokeWidth" orient="auto" markerWidth="4" markerHeight="3" viewBox="0 0 10 10" refX="6.7" refY="5">
                  <polyline points="0,0 10,5 0,10 1,5" fill="rgb(128,128,128)"/>
                </marker>
              </defs>
              <path d="M 717.388,234.388 S 717.388,234.388 719.145,237.391 721.193,240.364 723.504,243.309 726.054,246.228 728.818,249.125 731.775,252.007 734.904,254.88 738.185,257.753 741.6,260.637 745.132,263.542 748.767,266.482 752.487,269.47 756.281,272.522 760.135,275.652 764.036,278.879 767.974,282.218 771.937,285.689 775.915,289.31 779.898,293.099 783.878,297.074 787.846,301.256 791.793,305.662 795.712,310.311 799.595,315.22 803.436,320.406 807.228,325.887 810.964,331.677 814.639,337.79 818.246,344.241 821.78,351.041 825.236,358.2 828.609,365.729 831.893,373.634 835.085,381.922 838.18,390.596 841.174,399.659 844.063,409.112 846.843,418.952 849.511,429.177 852.064,439.782 854.499,450.758 856.813,462.097 859.004,473.788 861.069,485.817 863.006,498.169 864.815,510.827 866.493,523.773 868.04,536.985 869.454,550.442 870.736,564.121 871.885,577.995 872.901,592.038 873.785,606.223 874.537,620.521 875.16,634.901 875.654,649.333 876.021,663.786 876.264,678.228 876.385,692.627 876.388,706.95 876.275,721.165 876.05,735.24 875.718,749.143 875.283,762.843 874.749,776.309 874.122,789.512 873.407,802.424 872.611,815.016 871.738,827.264 870.796,839.143 869.79,850.631 868.729,861.708 867.619,872.355 866.468,882.558 865.282,892.301 864.07,901.574 862.839,910.368 861.598,918.679 860.353,926.502 859.114,933.837 857.887,940.687 856.68,947.058 855.501,952.956 854.358,958.394 853.257,963.384 852.205,967.943 851.209,972.089 850.274,975.842 849.405,979.225 848.608,982.262 847.886,984.979 847.243,987.402 846.681,989.559 846.201,991.476 845.804,993.182 845.49,994.702 845.255,996.062 845.096,997.284 845.009,998.388 845.009,998.388" fill="none" stroke-width="1.125" stroke-opacity="1" stroke="rgb(128,128,128)" marker-end="url(#Mtgt15)"/>
              <text x="870.107" y="-557.262" font-size="1" text-anchor="middle" transform="scale(1,-1)" stroke-width="0" fill="rgb(0,0,0)" fill-opacity="1">6</text>
            </g>
            <g id="19">
              <defs>
                <marker id="Mtgt16" markerUnits="strokeWidth" orient="auto" markerWidth="4" markerHeight="3" viewBox="0 0 10 10" refX="6.7" refY="5">
                  <polyline points="0,0 10,5 0,10 1,5" fill="rgb(128,128,128)"/>
                </marker>
              </defs>
              <path d="M 337.68,334.388 S 337.68,334.388 339.474,341.572 341.194,348.409 342.841,355.096 344.417,361.794 345.924,368.63 347.367,375.704 348.75,383.089 350.075,390.838 351.348,398.985 352.573,407.547 353.753,416.529 354.894,425.923 355.998,435.714 357.069,445.877 358.112,456.384 359.127,467.2 360.119,478.289 361.09,489.612 362.042,501.129 362.977,512.8 363.897,524.587 364.803,536.45 365.696,548.353 366.578,560.261 367.449,572.142 368.31,583.966 369.162,595.706 370.005,607.336 370.839,618.836 371.664,630.186 372.481,641.371 373.288,652.377 374.086,663.193 374.874,673.811 375.652,684.225 376.417,694.43 377.171,704.425 377.91,714.21 378.634,723.785 379.341,733.154 380.03,742.32 380.698,751.287 381.343,760.063 381.964,768.652 382.557,777.061 383.12,785.297 383.65,793.368 384.145,801.28 384.6,809.041 385.014,816.657 385.382,824.134 385.702,831.478 385.97,838.696 386.183,845.791 386.338,852.769 386.432,859.633 386.462,866.386 386.426,873.03 386.321,879.569 386.147,886.002 385.9,892.33 385.581,898.554 385.189,904.673 384.725,910.685 384.189,916.59 383.584,922.384 382.913,928.067 382.178,933.634 381.385,939.084 380.54,944.412 379.649,949.616 378.721,954.692 377.765,959.635 376.792,964.443 375.815,969.111 374.846,973.636 373.9,978.014 372.995,982.242 372.147,986.317 371.377,990.235 370.704,993.993 370.152,997.591 369.743,1001.02 369.502,1004.29 369.456,1007.39 369.631,1010.33 370.057,1013.1 370.763,1015.7 371.779,1018.15 373.136,1020.43 374.867,1022.56 377.002,1024.55 379.574,1026.39 382.617,1028.12 386.162,1029.73 390.242,1031.24 394.887,1032.69 400.13,1034.09 406,1035.48 406,1035.48" fill="none" stroke-width="1.125" stroke-opacity="1" stroke="rgb(128,128,128)" marker-end="url(#Mtgt16)"/>
              <text x="384.811" y="-812.862" font-size="1" text-anchor="middle" transform="scale(1,-1)" stroke-width="0" fill="rgb(0,0,0)" fill-opacity="1">54</text>
            </g>
            <g id="20">
              <defs>
                <marker id="Mtgt17" markerUnits="strokeWidth" orient="auto" markerWidth="4" markerHeight="3" viewBox="0 0 10 10" refX="6.7" refY="5">
                  <polyline points="0,0 10,5 0,10 1,5" fill="rgb(128,128,128)"/>
                </marker>
              </defs>
              <path d="M 322.775,281.048 S 322.775,281.048 321.146,280.825 319.555,280.613 318.002,280.414 316.486,280.225 315.008,280.048 313.567,279.883 312.163,279.728 310.795,279.584 309.463,279.451 308.166,279.328 306.905,279.216 305.679,279.115 304.487,279.023 303.33,278.942 302.207,278.87 301.117,278.808 300.06,278.756 299.037,278.714 298.046,278.681 297.087,278.657 296.161,278.642 295.266,278.636 294.402,278.64 293.569,278.651 292.766,278.672 291.994,278.701 291.252,278.738 290.539,278.783 289.856,278.836 289.202,278.897 288.576,278.966 287.978,279.043 287.408,279.127 286.866,279.218 286.35,279.317 285.862,279.423 285.401,279.535 284.965,279.655 284.555,279.781 284.171,279.913 283.812,280.052 283.478,280.198 283.169,280.349 282.883,280.507 282.621,280.67 282.383,280.839 282.168,281.013 281.976,281.193 281.807,281.378 281.659,281.569 281.533,281.764 281.429,281.964 281.346,282.17 281.284,282.379 281.242,282.593 281.22,282.812 281.218,283.035 281.236,283.262 281.272,283.492 281.328,283.727 281.402,283.965 281.493,284.207 281.603,284.452 281.73,284.7 281.874,284.952 282.035,285.206 282.213,285.464 282.406,285.724 282.615,285.987 282.84,286.252 283.079,286.519 283.334,286.789 283.602,287.06 283.885,287.334 284.182,287.609 284.491,287.886 284.814,288.164 285.15,288.444 285.498,288.725 285.858,289.007 286.229,289.29 286.612,289.573 287.006,289.858 287.411,290.143 287.826,290.428 288.251,290.714 288.686,290.999 289.13,291.285 289.583,291.571 290.044,291.856 290.514,292.141 290.992,292.425 291.478,292.708 291.971,292.991 292.47,293.273 292.977,293.554 293.49,293.833 294.008,294.111 294.533,294.388 294.533,294.388" fill="none" stroke-width="1.125" stroke-opacity="1" stroke="rgb(128,128,128)" marker-end="url(#Mtgt17)"/>
              <text x="281.731" y="-281.473" font-size="1" text-anchor="middle" transform="scale(1,-1)" stroke-width="0" fill="rgb(0,0,0)" fill-opacity="1">27</text>
            </g>
            <g id="21">
              <defs>
                <marker id="Mtgt18" markerUnits="strokeWidth" orient="auto" markerWidth="4" markerHeight="3" viewBox="0 0 10 10" refX="6.7" refY="5">
                  <polyline points="0,0 10,5 0,10 1,5" fill="rgb(128,128,128)"/>
                </marker>
              </defs>
              <path d="M 1089.49,259.388 S 1089.49,259.388 1091.05,257.872 1092.2,256.599 1092.93,255.556 1093.23,254.733 1093.1,254.12 1092.54,253.71 1091.55,253.495 1090.15,253.468 1088.34,253.624 1086.14,253.956 1083.57,254.457 1080.63,255.122 1077.35,255.943 1073.73,256.913 1069.81,258.023 1065.59,259.266 1061.08,260.631 1056.31,262.109 1051.29,263.689 1046.03,265.359 1040.55,267.108 1034.86,268.922 1028.97,270.789 1022.91,272.694 1016.67,274.625 1010.28,276.566 1003.74,278.504 997.075,280.426 990.283,282.316 983.379,284.161 976.375,285.949 969.28,287.666 962.104,289.301 954.857,290.843 947.548,292.282 940.186,293.607 932.78,294.811 925.338,295.887 917.869,296.829 910.378,297.632 902.875,298.291 895.365,298.806 887.855,299.174 880.352,299.395 872.859,299.471 865.383,299.403 857.928,299.195 850.498,298.851 843.095,298.377 835.724,297.776 828.385,297.058 821.081,296.227 813.812,295.293 806.578,294.263 799.38,293.145 792.215,291.947 785.083,290.679 777.98,289.348 770.903,287.963 763.849,286.532 756.813,285.063 749.79,283.562 742.776,282.039 735.763,280.497 728.746,278.945 721.718,277.388 714.673,275.831 707.603,274.278 700.503,272.735 693.365,271.205 686.183,269.691 678.952,268.198 671.666,266.727 664.322,265.282 656.916,263.867 649.445,262.482 641.91,261.132 634.311,259.818 626.65,258.543 618.931,257.31 611.162,256.12 603.35,254.976 595.508,253.878 587.647,252.828 579.784,251.824 571.938,250.866 564.13,249.948 556.385,249.064 548.729,248.205 541.194,247.356 533.812,246.499 526.62,245.608 519.659,244.651 512.97,243.586 506.603,242.362 500.608,240.915 495.042,239.169 489.967,237.031 485.452,234.388 485.452,234.388" fill="none" stroke-width="1.125" stroke-opacity="1" stroke="rgb(128,128,128)" marker-end="url(#Mtgt18)"/>
              <text x="839.406" y="-298.088" font-size="1" text-anchor="middle" transform="scale(1,-1)" stroke-width="0" fill="rgb(0,0,0)" fill-opacity="1">27</text>
            </g>
            <g id="22">
              <defs>
                <marker id="Mtgt19" markerUnits="strokeWidth" orient="auto" markerWidth="4" markerHeight="3" viewBox="0 0 10 10" refX="6.7" refY="5">
                  <polyline points="0,0 10,5 0,10 1,5" fill="rgb(128,128,128)"/>
                </marker>
              </defs>
              <path d="M 845.009,998.388 S 845.009,998.388 845.081,997.429 845.206,996.384 845.387,995.241 845.627,993.986 845.927,992.606 846.29,991.083 846.716,989.402 847.203,987.544 847.753,985.494 848.363,983.232 849.033,980.743 849.759,978.007 850.54,975.01 851.373,971.734 852.254,968.164 853.18,964.287 854.147,960.087 855.152,955.554 856.189,950.676 857.255,945.442 858.345,939.845 859.455,933.878 860.579,927.534 861.712,920.81 862.851,913.704 863.99,906.213 865.123,898.34 866.247,890.085 867.356,881.453 868.446,872.448 869.511,863.079 870.548,853.352 871.551,843.278 872.517,832.868 873.442,822.134 874.321,811.09 875.15,799.752 875.927,788.136 876.646,776.259 877.307,764.14 877.905,751.798 878.437,739.254 878.902,726.529 879.297,713.645 879.621,700.624 879.87,687.489 880.046,674.265 880.145,660.975 880.167,647.643 880.113,634.293 879.981,620.95 879.772,607.639 879.486,594.383 879.124,581.207 878.687,568.134 878.176,555.187 877.592,542.39 876.938,529.764 876.215,517.33 875.427,505.111 874.575,493.124 873.662,481.39 872.693,469.926 871.669,458.749 870.595,447.874 869.475,437.317 868.313,427.09 867.112,417.205 865.879,407.673 864.616,398.503 863.33,389.703 862.024,381.279 860.704,373.236 859.376,365.577 858.045,358.305 856.715,351.421 855.393,344.922 854.084,338.807 852.793,333.073 851.526,327.714 850.289,322.725 849.086,318.098 847.924,313.824 846.807,309.894 845.741,306.299 844.731,303.026 843.781,300.065 842.896,297.402 842.081,295.026 841.34,292.923 840.676,291.082 840.093,289.488 839.594,288.131 839.183,286.999 838.861,286.081 838.631,285.368 838.494,284.852 838.451,284.527 838.502,284.388 838.502,284.388" fill="none" stroke-width="1.125" stroke-opacity="1" stroke="rgb(128,128,128)" marker-end="url(#Mtgt19)"/>
              <text x="880.148" y="-640.968" font-size="1" text-anchor="middle" transform="scale(1,-1)" stroke-width="0" fill="rgb(0,0,0)" fill-opacity="1">14</text>
            </g>
            <g id="23">
              <defs>
                <marker id="Mtgt20" markerUnits="strokeWidth" orient="auto" markerWidth="4" markerHeight="3" viewBox="0 0 10 10" refX="6.7" refY="5">
                  <polyline points="0,0 10,5 0,10 1,5" fill="rgb(128,128,128)"/>
                </marker>
              </defs>
              <path d="M 294.533,294.388 S 294.533,294.388 294.008,294.111 293.49,293.833 292.977,293.554 292.47,293.273 291.971,292.991 291.478,292.708 290.992,292.425 290.514,292.141 290.044,291.856 289.583,291.571 289.13,291.285 288.686,290.999 288.251,290.714 287.826,290.428 287.411,290.143 287.006,289.858 286.612,289.573 286.229,289.29 285.858,289.007 285.498,288.725 285.15,288.444 284.814,288.164 284.491,287.886 284.182,287.609 283.885,287.334 283.602,287.06 283.334,286.789 283.079,286.519 282.84,286.252 282.615,285.987 282.406,285.724 282.213,285.464 282.035,285.206 281.874,284.952 281.73,284.7 281.603,284.452 281.493,284.207 281.401,283.965 281.328,283.727 281.272,283.492 281.236,283.262 281.218,283.035 281.22,282.812 281.242,282.593 281.284,282.379 281.346,282.17 281.429,281.964 281.533,281.764 281.659,281.569 281.807,281.378 281.976,281.193 282.168,281.013 282.383,280.839 282.621,280.67 282.883,280.507 283.168,280.349 283.478,280.198 283.812,280.052 284.171,279.913 284.555,279.781 284.965,279.655 285.4,279.535 285.862,279.423 286.35,279.317 286.866,279.218 287.408,279.127 287.978,279.043 288.575,278.966 289.201,278.897 289.856,278.836 290.539,278.783 291.252,278.738 291.994,278.701 292.766,278.672 293.569,278.651 294.402,278.64 295.266,278.637 296.161,278.642 297.087,278.657 298.046,278.681 299.037,278.714 300.06,278.756 301.117,278.808 302.207,278.87 303.33,278.942 304.487,279.023 305.679,279.115 306.905,279.216 308.166,279.328 309.463,279.451 310.795,279.584 312.163,279.728 313.567,279.883 315.008,280.048 316.486,280.225 318.002,280.414 319.555,280.613 321.146,280.825 322.775,281.048 322.775,281.048" fill="none" stroke-width="1.125" stroke-opacity="1" stroke="rgb(128,128,128)" marker-end="url(#Mtgt20)"/>
              <text x="281.731" y="-281.473" font-size="1" text-anchor="middle" transform="scale(1,-1)" stroke-width="0" fill="rgb(0,0,0)" fill-opacity="1">27</text>
            </g>
            <g id="24">
              <defs>
                <marker id="Mtgt21" markerUnits="strokeWidth" orient="auto" markerWidth="4" markerHeight="3" viewBox="0 0 10 10" refX="6.7" refY="5">
                  <polyline points="0,0 10,5 0,10 1,5" fill="rgb(128,128,128)"/>
                </marker>
              </defs>
              <path d="M 1089.49,259.388 S 1089.49,259.388 1090.94,257.979 1092.05,256.777 1092.81,255.771 1093.2,254.953 1093.23,254.316 1092.9,253.854 1092.2,253.56 1091.14,253.429 1089.73,253.457 1087.98,253.639 1085.9,253.972 1083.5,254.451 1080.8,255.073 1077.8,255.833 1074.51,256.729 1070.96,257.757 1067.14,258.914 1063.09,260.195 1058.79,261.597 1054.28,263.118 1049.55,264.753 1044.63,266.5 1039.51,268.355 1034.21,270.314 1028.74,272.376 1023.12,274.537 1017.34,276.795 1011.41,279.146 1005.35,281.59 999.157,284.123 992.843,286.743 986.413,289.45 979.873,292.241 973.229,295.116 966.485,298.073 959.646,301.111 952.716,304.23 945.7,307.429 938.6,310.708 931.421,314.067 924.163,317.506 916.831,321.024 909.426,324.623 901.95,328.303 894.404,332.063 886.791,335.906 879.111,339.831 871.366,343.84 863.557,347.934 855.685,352.113 847.752,356.38 839.76,360.735 831.709,365.181 823.603,369.719 815.444,374.351 807.235,379.08 798.978,383.907 790.679,388.837 782.341,393.871 773.97,399.013 765.572,404.266 757.154,409.635 748.722,415.123 740.286,420.734 731.854,426.473 723.437,432.345 715.046,438.353 706.691,444.505 698.386,450.803 690.143,457.253 681.976,463.86 673.899,470.628 665.928,477.56 658.078,484.661 650.362,491.933 642.799,499.378 635.401,506.997 628.186,514.789 621.166,522.751 614.357,530.88 607.772,539.17 601.422,547.613 595.318,556.196 589.47,564.907 583.885,573.727 578.568,582.636 573.522,591.607 568.748,600.612 564.244,609.614 560.002,618.574 556.015,627.446 552.271,636.177 548.751,644.708 545.436,652.973 542.302,660.897 539.317,668.397 536.447,675.381 533.654,681.749 530.892,687.388 530.892,687.388" fill="none" stroke-width="1.125" stroke-opacity="1" stroke="rgb(128,128,128)" marker-end="url(#Mtgt21)"/>
              <text x="859.627" y="-350.015" font-size="1" text-anchor="middle" transform="scale(1,-1)" stroke-width="0" fill="rgb(0,0,0)" fill-opacity="1">21</text>
            </g>
            <g id="25">
              <defs>
                <marker id="Mtgt22" markerUnits="strokeWidth" orient="auto" markerWidth="4" markerHeight="3" viewBox="0 0 10 10" refX="6.7" refY="5">
                  <polyline points="0,0 10,5 0,10 1,5" fill="rgb(128,128,128)"/>
                </marker>
              </defs>
              <path d="M 1059.11,2379.78 S 1059.11,2379.78 1059.05,2379.86 1058.98,2379.64 1058.85,2379.09 1058.65,2378.21 1058.35,2376.99 1057.94,2375.42 1057.39,2373.5 1056.68,2371.22 1055.79,2368.59 1054.72,2365.61 1053.45,2362.26 1051.96,2358.54 1050.25,2354.44 1048.3,2349.95 1046.11,2345.05 1043.67,2339.72 1040.96,2333.94 1037.98,2327.69 1034.73,2320.93 1031.2,2313.64 1027.38,2305.79 1023.26,2297.33 1018.83,2288.25 1014.1,2278.5 1009.05,2268.04 1003.67,2256.85 997.96,2244.89 991.912,2232.13 985.52,2218.54 978.777,2204.1 971.677,2188.78 964.215,2172.55 956.387,2155.42 948.191,2137.36 939.623,2118.37 930.685,2098.44 921.377,2077.59 911.702,2055.81 901.664,2033.13 891.272,2009.56 880.534,1985.13 869.46,1959.87 858.065,1933.81 846.365,1907 834.376,1879.47 822.121,1851.29 809.621,1822.51 796.901,1793.18 783.986,1763.37 770.907,1733.14 757.691,1702.57 744.37,1671.72 730.975,1640.67 717.54,1609.5 704.097,1578.27 690.68,1547.06 677.321,1515.95 664.052,1485.02 650.906,1454.33 637.912,1423.96 625.098,1393.97 612.493,1364.43 600.12,1335.4 588.003,1306.95 576.161,1279.11 564.612,1251.95 553.37,1225.49 542.448,1199.79 531.855,1174.87 521.596,1150.76 511.675,1127.47 502.092,1105.02 492.845,1083.41 483.93,1062.65 475.34,1042.72 467.066,1023.62 459.098,1005.32 451.424,987.814 444.031,971.063 436.904,955.037 430.029,939.704 423.392,925.027 416.976,910.967 410.768,897.487 404.751,884.548 398.911,872.116 393.234,860.158 387.706,848.647 382.313,837.561 377.041,826.886 371.877,816.617 366.806,806.759 361.816,797.328 356.89,788.354 352.015,779.88 347.173,771.965 342.35,764.682 337.528,758.121 332.693,752.388 332.693,752.388" fill="none" stroke-width="1.125" stroke-opacity="1" stroke="rgb(128,128,128)" marker-end="url(#Mtgt22)"/>
              <text x="777.461" y="-1748.29" font-size="1" text-anchor="middle" transform="scale(1,-1)" stroke-width="0" fill="rgb(0,0,0)" fill-opacity="1">1</text>
            </g>
            <g id="26">
              <defs>
                <marker id="Mtgt23" markerUnits="strokeWidth" orient="auto" markerWidth="4" markerHeight="3" viewBox="0 0 10 10" refX="6.7" refY="5">
                  <polyline points="0,0 10,5 0,10 1,5" fill="rgb(128,128,128)"/>
                </marker>
              </defs>
              <path d="M 784,1033.9 S 784,1033.9 790.193,1032.17 795.486,1030.38 799.979,1028.44 803.763,1026.28 806.918,1023.81 809.517,1020.98 811.625,1017.71 813.298,1013.96 814.584,1009.69 815.526,1004.88 816.157,999.493 816.506,993.53 816.598,986.991 816.449,979.881 816.075,972.217 815.486,964.02 814.688,955.316 813.687,946.138 812.484,936.519 811.081,926.497 809.476,916.113 807.669,905.406 805.657,894.417 803.437,883.189 801.009,871.761 798.371,860.172 795.521,848.46 792.46,836.661 789.188,824.808 785.707,812.933 782.02,801.065 778.13,789.228 774.044,777.447 769.766,765.742 765.304,754.13 760.666,742.625 755.86,731.241 750.896,719.986 745.784,708.868 740.535,697.891 735.158,687.057 729.664,676.367 724.065,665.82 718.369,655.413 712.586,645.14 706.727,634.995 700.798,624.973 694.808,615.064 688.762,605.26 682.667,595.551 676.526,585.928 670.343,576.379 664.119,566.896 657.854,557.466 651.548,548.081 645.199,538.73 638.804,529.402 632.359,520.089 625.859,510.782 619.299,501.471 612.672,492.151 605.972,482.814 599.193,473.453 592.326,464.064 585.367,454.643 578.308,445.187 571.146,435.694 563.874,426.163 556.49,416.596 548.992,406.994 541.379,397.362 533.652,387.705 525.815,378.03 517.871,368.347 509.829,358.667 501.698,349.003 493.489,339.371 485.216,329.788 476.895,320.275 468.546,310.854 460.189,301.549 451.847,292.386 443.548,283.394 435.318,274.603 427.189,266.044 419.193,257.75 411.364,249.752 403.738,242.082 396.353,234.771 389.248,227.847 382.462,221.334 376.035,215.251 370.005,209.609 364.41,204.414 359.283,199.659 354.654,195.322 350.543,191.37 346.961,187.75 343.905,184.388 343.905,184.388" fill="none" stroke-width="1.125" stroke-opacity="1" stroke="rgb(128,128,128)" marker-end="url(#Mtgt23)"/>
              <text x="685.719" y="-600.397" font-size="1" text-anchor="middle" transform="scale(1,-1)" stroke-width="0" fill="rgb(0,0,0)" fill-opacity="1">27</text>
            </g>
            <g id="27">
              <defs>
                <marker id="Mtgt24" markerUnits="strokeWidth" orient="auto" markerWidth="4" markerHeight="3" viewBox="0 0 10 10" refX="6.7" refY="5">
                  <polyline points="0,0 10,5 0,10 1,5" fill="rgb(128,128,128)"/>
                </marker>
              </defs>
              <path d="M 1089.49,259.388 S 1089.49,259.388 1090.64,258.349 1091.68,257.496 1092.6,256.817 1093.42,256.301 1094.13,255.94 1094.74,255.727 1095.25,255.657 1095.66,255.725 1095.98,255.928 1096.19,256.264 1096.31,256.73 1096.33,257.326 1096.25,258.05 1096.07,258.902 1095.8,259.882 1095.44,260.99 1094.97,262.226 1094.42,263.59 1093.76,265.083 1093.01,266.705 1092.17,268.457 1091.24,270.339 1090.21,272.352 1089.08,274.497 1087.87,276.774 1086.56,279.184 1085.16,281.729 1083.66,284.407 1082.07,287.221 1080.39,290.172 1078.61,293.26 1076.73,296.486 1074.76,299.852 1072.69,303.358 1070.51,307.005 1068.23,310.796 1065.85,314.731 1063.35,318.811 1060.74,323.038 1058.02,327.413 1055.17,331.937 1052.2,336.612 1049.11,341.438 1045.87,346.417 1042.5,351.549 1038.99,356.836 1035.33,362.276 1031.51,367.871 1027.54,373.621 1023.41,379.524 1019.1,385.579 1014.63,391.786 1009.97,398.142 1005.14,404.645 1000.12,411.291 994.918,418.076 989.523,424.996 983.936,432.046 978.156,439.219 972.183,446.507 966.017,453.905 959.66,461.401 953.115,468.987 946.384,476.652 939.473,484.384 932.388,492.171 925.137,499.999 917.728,507.853 910.171,515.719 902.478,523.579 894.662,531.418 886.738,539.218 878.721,546.96 870.629,554.626 862.482,562.198 854.299,569.656 846.102,576.981 837.915,584.154 829.762,591.158 821.668,597.975 813.659,604.588 805.762,610.983 798.006,617.146 790.418,623.066 783.027,628.733 775.86,634.143 768.946,639.293 762.311,644.185 755.982,648.824 749.982,653.223 744.333,657.398 739.056,661.374 734.167,665.182 729.679,668.861 725.601,672.459 721.937,676.036 718.684,679.659 715.835,683.412 713.374,687.388 713.374,687.388" fill="none" stroke-width="1.125" stroke-opacity="1" stroke="rgb(128,128,128)" marker-end="url(#Mtgt24)"/>
              <text x="1025.49" y="-376.558" font-size="1" text-anchor="middle" transform="scale(1,-1)" stroke-width="0" fill="rgb(0,0,0)" fill-opacity="1">27</text>
            </g>
            <g id="28">
              <defs>
                <marker id="Mtgt25" markerUnits="strokeWidth" orient="auto" markerWidth="4" markerHeight="3" viewBox="0 0 10 10" refX="6.7" refY="5">
                  <polyline points="0,0 10,5 0,10 1,5" fill="rgb(128,128,128)"/>
                </marker>
              </defs>
              <path d="M 1059.11,2379.78 S 1059.11,2379.78 1059.07,2379.86 1059.05,2379.65 1059.08,2379.06 1059.16,2378.03 1059.33,2376.44 1059.58,2374.21 1059.95,2371.24 1060.45,2367.43 1061.11,2362.71 1061.95,2356.98 1063,2350.17 1064.29,2342.23 1065.84,2333.1 1067.69,2322.73 1069.85,2311.09 1072.38,2298.16 1075.27,2283.93 1078.57,2268.4 1082.29,2251.58 1086.45,2233.48 1091.06,2214.14 1096.14,2193.6 1101.7,2171.89 1107.73,2149.08 1114.24,2125.22 1121.22,2100.38 1128.67,2074.62 1136.57,2048.03 1144.9,2020.69 1153.65,1992.67 1162.79,1964.07 1172.29,1934.96 1182.13,1905.44 1192.28,1875.6 1202.7,1845.53 1213.36,1815.31 1224.22,1785.02 1235.25,1754.77 1246.41,1724.62 1257.65,1694.67 1268.95,1664.98 1280.27,1635.63 1291.57,1606.69 1302.83,1578.23 1313.99,1550.31 1325.04,1522.98 1335.95,1496.31 1346.69,1470.33 1357.23,1445.09 1367.55,1420.64 1377.64,1396.99 1387.47,1374.19 1397.03,1352.25 1406.31,1331.19 1415.3,1311.02 1423.98,1291.76 1432.35,1273.41 1440.41,1255.96 1448.16,1239.41 1455.59,1223.75 1462.71,1208.98 1469.51,1195.07 1476,1182 1482.19,1169.75 1488.07,1158.3 1493.66,1147.62 1498.96,1137.68 1503.98,1128.45 1508.71,1119.9 1513.18,1111.99 1517.38,1104.7 1521.31,1097.98 1524.99,1091.82 1528.42,1086.16 1531.6,1080.99 1534.54,1076.26 1537.24,1071.96 1539.7,1068.04 1541.93,1064.49 1543.92,1061.28 1545.67,1058.39 1547.2,1055.8 1548.49,1053.48 1549.55,1051.43 1550.38,1049.63 1550.97,1048.06 1551.33,1046.72 1551.44,1045.6 1551.32,1044.7 1550.95,1044.01 1550.34,1043.52 1549.47,1043.25 1548.34,1043.19 1546.94,1043.34 1545.27,1043.7 1543.29,1044.28 1541.01,1045.09 1538.39,1046.12 1535.41,1047.39 1535.41,1047.39" fill="none" stroke-width="1.125" stroke-opacity="1" stroke="rgb(128,128,128)" marker-end="url(#Mtgt25)"/>
              <text x="1362.41" y="-1432.79" font-size="1" text-anchor="middle" transform="scale(1,-1)" stroke-width="0" fill="rgb(0,0,0)" fill-opacity="1">1</text>
            </g>
            <g id="29">
              <defs>
                <marker id="Mtgt26" markerUnits="strokeWidth" orient="auto" markerWidth="4" markerHeight="3" viewBox="0 0 10 10" refX="6.7" refY="5">
                  <polyline points="0,0 10,5 0,10 1,5" fill="rgb(128,128,128)"/>
                </marker>
              </defs>
              <path d="M 784,1033.9 S 784,1033.9 786.78,1033.16 789.4,1032.42 791.867,1031.68 794.185,1030.92 796.361,1030.15 798.4,1029.36 800.308,1028.55 802.09,1027.7 803.751,1026.83 805.297,1025.91 806.732,1024.96 808.061,1023.95 809.288,1022.9 810.419,1021.78 811.457,1020.61 812.408,1019.37 813.274,1018.07 814.06,1016.69 814.769,1015.23 815.407,1013.7 815.975,1012.08 816.477,1010.37 816.918,1008.57 817.299,1006.68 817.624,1004.7 817.896,1002.61 818.117,1000.42 818.291,998.131 818.419,995.735 818.505,993.232 818.55,990.62 818.556,987.899 818.526,985.068 818.461,982.125 818.364,979.071 818.236,975.905 818.078,972.628 817.891,969.239 817.678,965.74 817.44,962.132 817.177,958.415 816.891,954.591 816.582,950.663 816.251,946.632 815.899,942.5 815.527,938.271 815.135,933.947 814.723,929.531 814.292,925.026 813.842,920.438 813.374,915.768 812.887,911.023 812.382,906.206 811.858,901.322 811.315,896.376 810.753,891.374 810.173,886.321 809.573,881.222 808.953,876.084 808.313,870.913 807.653,865.716 806.972,860.498 806.269,855.267 805.544,850.03 804.796,844.793 804.026,839.565 803.231,834.353 802.412,829.164 801.568,824.005 800.698,818.886 799.802,813.813 798.879,808.796 797.928,803.841 796.949,798.958 795.941,794.154 794.903,789.438 793.835,784.818 792.737,780.302 791.607,775.899 790.447,771.617 789.254,767.464 788.029,763.449 786.771,759.578 785.481,755.862 784.158,752.306 782.802,748.919 781.413,745.709 779.991,742.682 778.537,739.847 777.051,737.209 775.532,734.776 773.983,732.554 772.403,730.55 770.793,728.768 769.155,727.215 767.488,725.895 765.795,724.814 764.077,723.976 762.336,723.384 762.336,723.384" fill="none" stroke-width="1.125" stroke-opacity="1" stroke="rgb(128,128,128)" marker-end="url(#Mtgt26)"/>
              <text x="814.069" y="-922.74" font-size="1" text-anchor="middle" transform="scale(1,-1)" stroke-width="0" fill="rgb(0,0,0)" fill-opacity="1">27</text>
            </g>
            <g id="30">
              <defs>
                <marker id="Mtgt27" markerUnits="strokeWidth" orient="auto" markerWidth="4" markerHeight="3" viewBox="0 0 10 10" refX="6.7" refY="5">
                  <polyline points="0,0 10,5 0,10 1,5" fill="rgb(128,128,128)"/>
                </marker>
              </defs>
              <path d="M 433.667,194.388 Q 400.786,165.929 458.755,167.137" fill="none" stroke-width="1.125" stroke-opacity="1" stroke="rgb(128,128,128)" marker-end="url(#Mtgt27)"/>
              <text x="423.5" y="-173.346" font-size="1" text-anchor="middle" transform="scale(1,-1)" stroke-width="0" fill="rgb(0,0,0)" fill-opacity="1">27</text>
            </g>
            <g id="31">
              <defs>
                <marker id="Mtgt28" markerUnits="strokeWidth" orient="auto" markerWidth="4" markerHeight="3" viewBox="0 0 10 10" refX="6.7" refY="5">
                  <polyline points="0,0 10,5 0,10 1,5" fill="rgb(128,128,128)"/>
                </marker>
              </defs>
              <path d="M 1059.11,2379.78 S 1059.11,2379.78 1059.06,2379.82 1059.06,2379.28 1059.14,2377.83 1059.31,2375.1 1059.59,2370.7 1059.97,2364.28 1060.45,2355.49 1061.01,2344.09 1061.63,2329.88 1062.31,2312.73 1063.03,2292.61 1063.75,2269.52 1064.48,2243.56 1065.17,2214.86 1065.82,2183.6 1066.41,2150.01 1066.92,2114.35 1067.33,2076.88 1067.62,2037.9 1067.79,1997.71 1067.81,1956.61 1067.69,1914.87 1067.41,1872.79 1066.96,1830.63 1066.34,1788.64 1065.55,1747.03 1064.57,1706.03 1063.42,1665.81 1062.09,1626.52 1060.57,1588.29 1058.89,1551.25 1057.03,1515.46 1055.01,1480.99 1052.82,1447.88 1050.48,1416.16 1047.99,1385.82 1045.36,1356.86 1042.6,1329.24 1039.71,1302.93 1036.7,1277.87 1033.59,1254 1030.37,1231.25 1027.06,1209.55 1023.66,1188.81 1020.18,1168.96 1016.63,1149.89 1013,1131.52 1009.32,1113.76 1005.59,1096.52 1001.8,1079.71 997.968,1063.23 994.096,1047.01 990.187,1030.96 986.246,1014.99 982.276,999.035 978.282,983.012 974.266,966.853 970.232,950.493 966.183,933.873 962.122,916.938 958.053,899.639 953.979,881.935 949.903,863.789 945.829,845.175 941.759,826.073 937.697,806.473 933.646,786.372 929.61,765.778 925.592,744.709 921.594,723.194 917.62,701.271 913.673,678.992 909.756,656.417 905.87,633.62 902.019,610.684 898.205,587.703 894.431,564.78 890.698,542.029 887.011,519.57 883.372,497.527 879.785,476.032 876.254,455.217 872.786,435.211 869.389,416.143 866.069,398.135 862.84,381.296 859.713,365.725 856.705,351.503 853.834,338.692 851.122,327.329 848.593,317.429 846.275,308.978 844.197,301.935 842.391,296.235 840.889,291.788 839.723,288.488 838.922,286.223 838.51,284.884 838.502,284.388 838.502,284.388" fill="none" stroke-width="1.125" stroke-opacity="1" stroke="rgb(128,128,128)" marker-end="url(#Mtgt28)"/>
              <text x="1003.7" y="-1088.08" font-size="1" text-anchor="middle" transform="scale(1,-1)" stroke-width="0" fill="rgb(0,0,0)" fill-opacity="1">48</text>
            </g>
            <g id="32">
              <g id="33">
                <defs>
                  <marker id="Mtgt29" markerUnits="strokeWidth" orient="auto" markerWidth="4" markerHeight="3" viewBox="0 0 10 10" refX="6.7" refY="5">
                    <polyline points="0,0 10,5 0,10 1,5" fill="rgb(128,128,128)"/>
                  </marker>
                </defs>
                <path d="M 1704.27,589.388 S 1704.27,589.388 1703.22,588.685 1702.21,588.088 1701.25,587.593 1700.33,587.195 1699.45,586.889 1698.62,586.673 1697.83,586.542 1697.08,586.493 1696.36,586.522 1695.69,586.628 1695.05,586.807 1694.44,587.056 1693.88,587.374 1693.34,587.757 1692.84,588.205 1692.37,588.716 1691.94,589.287 1691.54,589.918 1691.17,590.608 1690.83,591.354 1690.53,592.156 1690.26,593.014 1690.02,593.927 1689.81,594.893 1689.63,595.913 1689.48,596.986 1689.37,598.112 1689.28,599.29 1689.23,600.521 1689.21,601.804 1689.22,603.14 1689.27,604.528 1689.34,605.969 1689.45,607.462 1689.59,609.008 1689.77,610.608 1689.97,612.261 1690.21,613.968 1690.48,615.728 1690.79,617.543 1691.13,619.413 1691.5,621.337 1691.9,623.317 1692.34,625.352 1692.81,627.442 1693.31,629.589 1693.84,631.791 1694.41,634.049 1695.01,636.363 1695.64,638.733 1696.3,641.16 1696.99,643.641 1697.71,646.179 1698.46,648.772 1699.24,651.419 1700.04,654.121 1700.87,656.877 1701.73,659.686 1702.6,662.547 1703.51,665.459 1704.43,668.422 1705.37,671.434 1706.33,674.494 1707.3,677.6 1708.29,680.751 1709.28,683.945 1710.29,687.18 1711.3,690.455 1712.32,693.766 1713.34,697.112 1714.35,700.49 1715.36,703.897 1716.36,707.331 1717.35,710.788 1718.32,714.265 1719.27,717.759 1720.2,721.265 1721.1,724.781 1721.96,728.301 1722.78,731.822 1723.56,735.339 1724.29,738.848 1724.97,742.342 1725.58,745.818 1726.13,749.27 1726.6,752.691 1727,756.076 1727.3,759.42 1727.51,762.715 1727.62,765.954 1727.62,769.131 1727.5,772.239 1727.25,775.27 1726.86,778.216 1726.33,781.07 1725.65,783.823 1724.8,786.466 1723.78,788.99 1722.57,791.388 1722.57,791.388" fill="none" stroke-width="1.125" stroke-opacity="1" stroke="rgb(128,128,128)" marker-end="url(#Mtgt29)"/>
                <text x="1695.32" y="-637.543" font-size="1" text-anchor="middle" transform="scale(1,-1)" stroke-width="0" fill="rgb(0,0,0)" fill-opacity="1">1</text>
              </g>
              <g id="34">
                <g id="35">
                  <defs>
                    <marker id="Mtgt30" markerUnits="strokeWidth" orient="auto" markerWidth="4" markerHeight="3" viewBox="0 0 10 10" refX="6.7" refY="5">
                      <polyline points="0,0 10,5 0,10 1,5" fill="rgb(128,128,128)"/>
                    </marker>
                  </defs>
                  <path d="M 1059.11,2379.78 S 1059.11,2379.78 1059.05,2379.71 1059.12,2378.53 1059.39,2375.72 1059.92,2370.79 1060.79,2363.29 1062.04,2352.84 1063.76,2339.21 1066,2322.23 1068.83,2301.86 1072.28,2278.14 1076.41,2251.2 1081.24,2221.22 1086.78,2188.44 1093.03,2153.14 1099.97,2115.62 1107.57,2076.2 1115.81,2035.22 1124.62,1992.99 1133.96,1949.83 1143.78,1906.05 1154,1861.95 1164.58,1817.78 1175.44,1773.8 1186.53,1730.24 1197.8,1687.29 1209.18,1645.14 1220.64,1603.93 1232.12,1563.8 1243.59,1524.85 1255,1487.17 1266.34,1450.81 1277.58,1415.83 1288.68,1382.23 1299.65,1350.05 1310.45,1319.26 1321.09,1289.85 1331.54,1261.8 1341.81,1235.05 1351.89,1209.57 1361.77,1185.29 1371.46,1162.16 1380.95,1140.11 1390.25,1119.08 1399.35,1099 1408.25,1079.8 1416.96,1061.42 1425.47,1043.79 1433.79,1026.84 1441.91,1010.53 1449.84,994.78 1457.58,979.553 1465.13,964.797 1472.48,950.47 1479.65,936.531 1486.64,922.949 1493.44,909.693 1500.06,896.74 1506.5,884.069 1512.77,871.665 1518.87,859.517 1524.8,847.615 1530.58,835.954 1536.2,824.532 1541.68,813.346 1547.02,802.396 1552.22,791.685 1557.31,781.212 1562.27,770.978 1567.13,760.983 1571.88,751.227 1576.54,741.707 1581.11,732.42 1585.59,723.36 1589.99,714.52 1594.31,705.895 1598.56,697.476 1602.73,689.255 1606.81,681.227 1610.81,673.386 1614.72,665.73 1618.51,658.263 1622.19,650.988 1625.72,643.92 1629.08,637.075 1632.25,630.479 1635.19,624.162 1637.87,618.164 1640.24,612.527 1642.25,607.301 1643.87,602.538 1645.02,598.294 1645.66,594.622 1645.72,591.577 1645.15,589.209 1643.86,587.568 1641.81,586.703 1638.9,586.667 1635.05,587.53 1630.15,589.388 1630.15,589.388" fill="none" stroke-width="1.125" stroke-opacity="1" stroke="rgb(128,128,128)" marker-end="url(#Mtgt30)"/>
                  <text x="1445.89" y="-1002.6" font-size="1" text-anchor="middle" transform="scale(1,-1)" stroke-width="0" fill="rgb(0,0,0)" fill-opacity="1">1</text>
                </g>
                <g id="36">
                  <defs>
                    <marker id="Mtgt31" markerUnits="strokeWidth" orient="auto" markerWidth="4" markerHeight="3" viewBox="0 0 10 10" refX="6.7" refY="5">
                      <polyline points="0,0 10,5 0,10 1,5" fill="rgb(128,128,128)"/>
                    </marker>
                  </defs>
                  <path d="M 458.223,234.388 S 458.223,234.388 458.344,236.128 458.453,237.822 458.548,239.472 458.628,241.078 458.69,242.642 458.734,244.163 458.759,245.643 458.763,247.082 458.745,248.481 458.704,249.841 458.639,251.162 458.549,252.446 458.433,253.693 458.29,254.903 458.119,256.078 457.92,257.219 457.691,258.325 457.432,259.398 457.142,260.439 456.821,261.447 456.468,262.424 456.083,263.371 455.664,264.288 455.212,265.176 454.726,266.036 454.205,266.868 453.651,267.673 453.061,268.451 452.437,269.204 451.777,269.932 451.083,270.635 450.353,271.315 449.588,271.972 448.788,272.607 447.952,273.22 447.082,273.812 446.177,274.383 445.238,274.935 444.264,275.468 443.257,275.982 442.216,276.478 441.142,276.958 440.035,277.42 438.896,277.867 437.726,278.298 436.525,278.715 435.294,279.117 434.034,279.506 432.744,279.882 431.427,280.246 430.083,280.598 428.713,280.939 427.318,281.269 425.899,281.59 424.457,281.901 422.993,282.203 421.508,282.497 420.003,282.783 418.481,283.062 416.941,283.335 415.386,283.601 413.816,283.862 412.234,284.118 410.641,284.37 409.037,284.618 407.426,284.863 405.808,285.105 404.185,285.345 402.559,285.583 400.932,285.82 399.306,286.056 397.682,286.293 396.062,286.529 394.449,286.767 392.844,287.005 391.25,287.246 389.668,287.489 388.1,287.735 386.55,287.984 385.019,288.237 383.51,288.495 382.025,288.757 380.566,289.024 379.135,289.297 377.737,289.577 376.372,289.863 375.043,290.156 373.754,290.456 372.506,290.765 371.303,291.082 370.148,291.408 369.043,291.743 367.991,292.088 366.995,292.444 366.058,292.81 365.183,293.186 364.374,293.575 363.633,293.975 362.963,294.388 362.963,294.388" fill="none" stroke-width="1.125" stroke-opacity="1" stroke="rgb(128,128,128)" marker-end="url(#Mtgt31)"/>
                  <text x="432.088" y="-280.065" font-size="1" text-anchor="middle" transform="scale(1,-1)" stroke-width="0" fill="rgb(0,0,0)" fill-opacity="1">27</text>
                </g>
              </g>
              <g id="Nodes" desc="This is the group of nodes">
                <g id="920">
                  <rect x="28" y="1018.39" width="208" height="80" fill="rgb(0,0,0)" fill-opacity="0"/>
                  <text x="132" y="-1051.99" font-size="19.2" text-anchor="middle" transform="scale(1,-1)" stroke-width="0" fill="rgb(0,0,0)" fill-opacity="1">PIL.ImageMode</text>
                </g>
                <g id="31">
                  <rect x="1504.55" y="95.3877" width="618" height="140" fill="rgb(255,0,0)" fill-opacity="0.0588235" stroke="rgb(0,0,0)" stroke-opacity="1" stroke-width="0.5"/>
                </g>
                <g id="32">
                  <rect x="1494.55" y="85.3877" width="638" height="190" fill="rgb(255,0,0)" fill-opacity="0.0588235" stroke="rgb(0,0,0)" stroke-opacity="1" stroke-width="0.5"/>
                </g>
                <g id="33">
                  <rect x="1613.36" y="781.388" width="196" height="90" fill="rgb(255,0,0)" fill-opacity="0.0588235" stroke="rgb(0,0,0)" stroke-opacity="1" stroke-width="0.5"/>
                </g>
                <g id="34">
                  <rect x="1561.74" y="539.388" width="228" height="90" fill="rgb(255,0,0)" fill-opacity="0.0588235" stroke="rgb(0,0,0)" stroke-opacity="1" stroke-width="0.5"/>
                </g>
                <g id="35">
                  <rect x="1551.74" y="529.388" width="267.616" height="382" fill="rgb(255,0,0)" fill-opacity="0.0588235" stroke="rgb(0,0,0)" stroke-opacity="1" stroke-width="0.5"/>
                </g>
                <g id="36">
                  <rect x="1475" y="997.388" width="212" height="90" fill="rgb(255,0,0)" fill-opacity="0.0588235" stroke="rgb(0,0,0)" stroke-opacity="1" stroke-width="0.5"/>
                </g>
                <g id="37">
                  <rect x="1465" y="987.388" width="232" height="140" fill="rgb(255,0,0)" fill-opacity="0.0588235" stroke="rgb(0,0,0)" stroke-opacity="1" stroke-width="0.5"/>
                </g>
                <g id="38">
                  <rect x="1455" y="75.3877" width="687.55" height="1092" fill="rgb(255,0,0)" fill-opacity="0.0588235" stroke="rgb(0,0,0)" stroke-opacity="1" stroke-width="0.5"/>
                </g>
                <g id="39">
                  <rect x="956" y="2369.78" width="196" height="90" fill="rgb(255,0,0)" fill-opacity="0.0588235" stroke="rgb(0,0,0)" stroke-opacity="1" stroke-width="0.5"/>
                </g>
                <g id="40">
                  <rect x="187.775" y="314.388" width="288" height="80" fill="rgb(0,0,0)" fill-opacity="0"/>
                  <text x="331.775" y="-347.988" font-size="19.2" text-anchor="middle" transform="scale(1,-1)" stroke-width="0" fill="rgb(0,0,0)" fill-opacity="1">PIL.PngImagePlugin</text>
                </g>
                <g id="41">
                  <rect x="242" y="1018.39" width="176" height="80" fill="rgb(0,0,0)" fill-opacity="0"/>
                  <text x="330" y="-1051.99" font-size="19.2" text-anchor="middle" transform="scale(1,-1)" stroke-width="0" fill="rgb(0,0,0)" fill-opacity="1">PIL._binary</text>
                </g>
                <g id="42">
                  <rect x="772" y="1018.39" width="144" height="80" fill="rgb(0,0,0)" fill-opacity="0"/>
                  <text x="844" y="-1051.99" font-size="19.2" text-anchor="middle" transform="scale(1,-1)" stroke-width="0" fill="rgb(0,0,0)" fill-opacity="1">PIL.Image</text>
                </g>
                <g id="43">
                  <rect x="711.775" y="264.388" width="176" height="80" fill="rgb(0,0,0)" fill-opacity="0"/>
                  <text x="799.775" y="-297.988" font-size="19.2" text-anchor="middle" transform="scale(1,-1)" stroke-width="0" fill="rgb(0,0,0)" fill-opacity="1">PIL.ImageTk</text>
                </g>
                <g id="921">
                  <rect x="1006.78" y="239.388" width="208" height="80" fill="rgb(0,0,0)" fill-opacity="0"/>
                  <text x="1110.78" y="-272.988" font-size="19.2" text-anchor="middle" transform="scale(1,-1)" stroke-width="0" fill="rgb(0,0,0)" fill-opacity="1">PIL.ImageFile</text>
                </g>
                <g id="30">
                  <rect x="1514.55" y="105.388" width="292" height="90" fill="rgb(255,0,0)" fill-opacity="0.0588235" stroke="rgb(0,0,0)" stroke-opacity="1" stroke-width="0.5"/>
                </g>
                <g id="919">
                  <rect x="133.336" y="732.388" width="192" height="80" fill="rgb(0,0,0)" fill-opacity="0"/>
                  <text x="229.336" y="-765.988" font-size="19.2" text-anchor="middle" transform="scale(1,-1)" stroke-width="0" fill="rgb(0,0,0)" fill-opacity="1">PIL.TiffTags</text>
                </g>
                <g id="574">
                  <rect x="523.336" y="707.388" width="144" height="80" fill="rgb(0,0,0)" fill-opacity="0"/>
                  <text x="595.336" y="-740.988" font-size="19.2" text-anchor="middle" transform="scale(1,-1)" stroke-width="0" fill="rgb(0,0,0)" fill-opacity="1">PIL._util</text>
                </g>
                <g id="563">
                  <rect x="597.388" y="1058.39" width="48" height="80" fill="rgb(0,0,0)" fill-opacity="0"/>
                  <text x="621.388" y="-1091.99" font-size="19.2" text-anchor="middle" transform="scale(1,-1)" stroke-width="0" fill="rgb(0,0,0)" fill-opacity="1">PIL</text>
                </g>
                <g id="617">
                  <rect x="1766.55" y="135.388" width="416" height="80" fill="rgb(0,0,0)" fill-opacity="0"/>
                  <text x="1974.55" y="-168.988" font-size="19.2" text-anchor="middle" transform="scale(1,-1)" stroke-width="0" fill="rgb(0,0,0)" fill-opacity="1">scipy.fft._pocketfft.basic</text>
                </g>
                <g id="525">
                  <rect x="1444.55" y="135.388" width="432" height="80" fill="rgb(0,0,0)" fill-opacity="0"/>
                  <text x="1660.55" y="-168.988" font-size="19.2" text-anchor="middle" transform="scale(1,-1)" stroke-width="0" fill="rgb(0,0,0)" fill-opacity="1">scipy.fft._pocketfft.helper</text>
                </g>
                <g id="405">
                  <rect x="1653.55" y="175.388" width="320" height="80" fill="rgb(0,0,0)" fill-opacity="0"/>
                  <text x="1813.55" y="-208.988" font-size="19.2" text-anchor="middle" transform="scale(1,-1)" stroke-width="0" fill="rgb(0,0,0)" fill-opacity="1">scipy.fft._pocketfft</text>
                </g>
                <g id="913">
                  <rect x="1741.55" y="215.388" width="144" height="80" fill="rgb(0,0,0)" fill-opacity="0"/>
                  <text x="1813.55" y="-248.988" font-size="19.2" text-anchor="middle" transform="scale(1,-1)" stroke-width="0" fill="rgb(0,0,0)" fill-opacity="1">scipy.fft</text>
                </g>
                <g id="912">
                  <rect x="1575.36" y="811.388" width="272" height="80" fill="rgb(0,0,0)" fill-opacity="0"/>
                  <text x="1711.36" y="-844.988" font-size="19.2" text-anchor="middle" transform="scale(1,-1)" stroke-width="0" fill="rgb(0,0,0)" fill-opacity="1">scipy.linalg.blas</text>
                </g>
                <g id="911">
                  <rect x="1523.74" y="569.388" width="304" height="80" fill="rgb(0,0,0)" fill-opacity="0"/>
                  <text x="1675.74" y="-602.988" font-size="19.2" text-anchor="middle" transform="scale(1,-1)" stroke-width="0" fill="rgb(0,0,0)" fill-opacity="1">scipy.linalg.lapack</text>
                </g>
                <g id="526">
                  <rect x="1589.55" y="851.388" width="192" height="80" fill="rgb(0,0,0)" fill-opacity="0"/>
                  <text x="1685.55" y="-884.988" font-size="19.2" text-anchor="middle" transform="scale(1,-1)" stroke-width="0" fill="rgb(0,0,0)" fill-opacity="1">scipy.linalg</text>
                </g>
                <g id="686">
                  <rect x="1445" y="1027.39" width="272" height="80" fill="rgb(0,0,0)" fill-opacity="0"/>
                  <text x="1581" y="-1060.99" font-size="19.2" text-anchor="middle" transform="scale(1,-1)" stroke-width="0" fill="rgb(0,0,0)" fill-opacity="1">scipy._lib.doccer</text>
                </g>
                <g id="685">
                  <rect x="1501" y="1067.39" width="160" height="80" fill="rgb(0,0,0)" fill-opacity="0"/>
                  <text x="1581" y="-1100.99" font-size="19.2" text-anchor="middle" transform="scale(1,-1)" stroke-width="0" fill="rgb(0,0,0)" fill-opacity="1">scipy._lib</text>
                </g>
                <g id="907">
                  <rect x="1758.78" y="1107.39" width="80" height="80" fill="rgb(0,0,0)" fill-opacity="0"/>
                  <text x="1798.78" y="-1140.99" font-size="19.2" text-anchor="middle" transform="scale(1,-1)" stroke-width="0" fill="rgb(0,0,0)" fill-opacity="1">scipy</text>
                </g>
                <g id="906">
                  <rect x="1054" y="2399.78" width="0" height="80" fill="rgb(0,0,0)" fill-opacity="0"/>
                </g>
                <g id="20">
                  <rect x="72.7754" y="134.388" width="518" height="240" fill="rgb(255,0,0)" fill-opacity="0.0588235" stroke="rgb(0,0,0)" stroke-opacity="1" stroke-width="0.5"/>
                </g>
                <g id="21">
                  <rect x="244" y="988.388" width="172" height="90" fill="rgb(255,0,0)" fill-opacity="0.0588235" stroke="rgb(0,0,0)" stroke-opacity="1" stroke-width="0.5"/>
                </g>
                <g id="22">
                  <rect x="774" y="988.388" width="140" height="90" fill="rgb(255,0,0)" fill-opacity="0.0588235" stroke="rgb(0,0,0)" stroke-opacity="1" stroke-width="0.5"/>
                </g>
                <g id="23">
                  <rect x="620.775" y="184.388" width="358" height="140" fill="rgb(255,0,0)" fill-opacity="0.0588235" stroke="rgb(0,0,0)" stroke-opacity="1" stroke-width="0.5"/>
                </g>
                <g id="24">
                  <rect x="1008.78" y="209.388" width="204" height="90" fill="rgb(255,0,0)" fill-opacity="0.0588235" stroke="rgb(0,0,0)" stroke-opacity="1" stroke-width="0.5"/>
                </g>
                <g id="25">
                  <rect x="30" y="988.388" width="204" height="90" fill="rgb(255,0,0)" fill-opacity="0.0588235" stroke="rgb(0,0,0)" stroke-opacity="1" stroke-width="0.5"/>
                </g>
                <g id="26">
                  <rect x="50.3358" y="652.388" width="358" height="140" fill="rgb(255,0,0)" fill-opacity="0.0588235" stroke="rgb(0,0,0)" stroke-opacity="1" stroke-width="0.5"/>
                </g>
                <g id="27">
                  <rect x="418.336" y="677.388" width="354" height="90" fill="rgb(255,0,0)" fill-opacity="0.0588235" stroke="rgb(0,0,0)" stroke-opacity="1" stroke-width="0.5"/>
                </g>
                <g id="28">
                  <rect x="20" y="124.388" width="1202.78" height="994" fill="rgb(255,0,0)" fill-opacity="0.0588235" stroke="rgb(0,0,0)" stroke-opacity="1" stroke-width="0.5"/>
                </g>
                <g id="29">
                  <rect x="1836.55" y="105.388" width="276" height="90" fill="rgb(255,0,0)" fill-opacity="0.0588235" stroke="rgb(0,0,0)" stroke-opacity="1" stroke-width="0.5"/>
                </g>
                <g id="15">
                  <rect x="230.336" y="712.388" width="168" height="40" fill="rgb(255,255,255)" fill-opacity="1" stroke="rgb(0,0,0)" stroke-opacity="1" stroke-width="0.5"/>
                  <text x="314.336" y="-729.188" font-size="9.6" text-anchor="middle" transform="scale(1,-1)" stroke-width="0" fill="rgb(0,0,0)" fill-opacity="1">PIL.TiffTags.TiffTags</text>
                </g>
                <g id="1">
                  <rect x="254" y="998.388" width="152" height="40" fill="rgb(255,255,255)" fill-opacity="1" stroke="rgb(0,0,0)" stroke-opacity="1" stroke-width="0.5"/>
                  <text x="330" y="-1015.19" font-size="9.6" text-anchor="middle" transform="scale(1,-1)" stroke-width="0" fill="rgb(0,0,0)" fill-opacity="1">PIL._binary._binary</text>
                </g>
                <g id="2">
                  <rect x="1846.55" y="115.388" width="256" height="40" fill="rgb(255,255,255)" fill-opacity="1" stroke="rgb(0,0,0)" stroke-opacity="1" stroke-width="0.5"/>
                  <text x="1974.55" y="-132.188" font-size="9.6" text-anchor="middle" transform="scale(1,-1)" stroke-width="0" fill="rgb(0,0,0)" fill-opacity="1">scipy.fft._pocketfft.basic.basic</text>
                </g>
                <g id="3">
                  <rect x="1524.55" y="115.388" width="272" height="40" fill="rgb(255,255,255)" fill-opacity="1" stroke="rgb(0,0,0)" stroke-opacity="1" stroke-width="0.5"/>
                  <text x="1660.55" y="-132.188" font-size="9.6" text-anchor="middle" transform="scale(1,-1)" stroke-width="0" fill="rgb(0,0,0)" fill-opacity="1">scipy.fft._pocketfft.helper.helper</text>
                </g>
                <g id="4">
                  <rect x="784" y="998.388" width="120" height="40" fill="rgb(255,255,255)" fill-opacity="1" stroke="rgb(0,0,0)" stroke-opacity="1" stroke-width="0.5"/>
                  <text x="844" y="-1015.19" font-size="9.6" text-anchor="middle" transform="scale(1,-1)" stroke-width="0" fill="rgb(0,0,0)" fill-opacity="1">PIL.Image.Image</text>
                </g>
                <g id="5">
                  <rect x="194.755" y="144.388" width="264" height="40" fill="rgb(255,255,255)" fill-opacity="1" stroke="rgb(0,0,0)" stroke-opacity="1" stroke-width="0.5"/>
                  <text x="326.755" y="-161.188" font-size="9.6" text-anchor="middle" transform="scale(1,-1)" stroke-width="0" fill="rgb(0,0,0)" fill-opacity="1">PIL.PngImagePlugin.PngImagePlugin</text>
                </g>
                <g id="6">
                  <rect x="792.775" y="244.388" width="176" height="40" fill="rgb(255,255,255)" fill-opacity="1" stroke="rgb(0,0,0)" stroke-opacity="1" stroke-width="0.5"/>
                  <text x="880.775" y="-261.188" font-size="9.6" text-anchor="middle" transform="scale(1,-1)" stroke-width="0" fill="rgb(0,0,0)" fill-opacity="1">PIL.ImageTk.PhotoImage</text>
                </g>
                <g id="7">
                  <rect x="966" y="2379.78" width="176" height="40" fill="rgb(255,255,255)" fill-opacity="1" stroke="rgb(0,0,0)" stroke-opacity="1" stroke-width="0.5"/>
                  <text x="1054" y="-2396.58" font-size="9.6" text-anchor="middle" transform="scale(1,-1)" stroke-width="0" fill="rgb(0,0,0)" fill-opacity="1">.++unknown-component++</text>
                </g>
                <g id="8">
                  <rect x="1018.78" y="219.388" width="184" height="40" fill="rgb(255,255,255)" fill-opacity="1" stroke="rgb(0,0,0)" stroke-opacity="1" stroke-width="0.5"/>
                  <text x="1110.78" y="-236.188" font-size="9.6" text-anchor="middle" transform="scale(1,-1)" stroke-width="0" fill="rgb(0,0,0)" fill-opacity="1">PIL.ImageFile.ImageFile</text>
                </g>
                <g id="9">
                  <rect x="220.756" y="294.388" width="224" height="40" fill="rgb(255,255,255)" fill-opacity="1" stroke="rgb(0,0,0)" stroke-opacity="1" stroke-width="0.5"/>
                  <text x="332.756" y="-311.188" font-size="9.6" text-anchor="middle" transform="scale(1,-1)" stroke-width="0" fill="rgb(0,0,0)" fill-opacity="1">PIL.PngImagePlugin.PngStream</text>
                </g>
                <g id="10">
                  <rect x="332.775" y="194.388" width="248" height="40" fill="rgb(255,255,255)" fill-opacity="1" stroke="rgb(0,0,0)" stroke-opacity="1" stroke-width="0.5"/>
                  <text x="456.775" y="-211.188" font-size="9.6" text-anchor="middle" transform="scale(1,-1)" stroke-width="0" fill="rgb(0,0,0)" fill-opacity="1">PIL.PngImagePlugin.PngImageFile</text>
                </g>
                <g id="11">
                  <rect x="1623.36" y="791.388" width="176" height="40" fill="rgb(255,255,255)" fill-opacity="1" stroke="rgb(0,0,0)" stroke-opacity="1" stroke-width="0.5"/>
                  <text x="1711.36" y="-808.188" font-size="9.6" text-anchor="middle" transform="scale(1,-1)" stroke-width="0" fill="rgb(0,0,0)" fill-opacity="1">scipy.linalg.blas.blas</text>
                </g>
                <g id="12">
                  <rect x="630.775" y="194.388" width="152" height="40" fill="rgb(255,255,255)" fill-opacity="1" stroke="rgb(0,0,0)" stroke-opacity="1" stroke-width="0.5"/>
                  <text x="706.775" y="-211.188" font-size="9.6" text-anchor="middle" transform="scale(1,-1)" stroke-width="0" fill="rgb(0,0,0)" fill-opacity="1">PIL.ImageTk.ImageTk</text>
                </g>
                <g id="13">
                  <rect x="40" y="998.388" width="184" height="40" fill="rgb(255,255,255)" fill-opacity="1" stroke="rgb(0,0,0)" stroke-opacity="1" stroke-width="0.5"/>
                  <text x="132" y="-1015.19" font-size="9.6" text-anchor="middle" transform="scale(1,-1)" stroke-width="0" fill="rgb(0,0,0)" fill-opacity="1">PIL.ImageMode.ImageMode</text>
                </g>
                <g id="14">
                  <rect x="1485" y="1007.39" width="192" height="40" fill="rgb(255,255,255)" fill-opacity="1" stroke="rgb(0,0,0)" stroke-opacity="1" stroke-width="0.5"/>
                  <text x="1581" y="-1024.19" font-size="9.6" text-anchor="middle" transform="scale(1,-1)" stroke-width="0" fill="rgb(0,0,0)" fill-opacity="1">scipy._lib.doccer.doccer</text>
                </g>
                <g id="0">
                  <rect x="82.7754" y="244.388" width="240" height="40" fill="rgb(255,255,255)" fill-opacity="1" stroke="rgb(0,0,0)" stroke-opacity="1" stroke-width="0.5"/>
                  <text x="202.775" y="-261.188" font-size="9.6" text-anchor="middle" transform="scale(1,-1)" stroke-width="0" fill="rgb(0,0,0)" fill-opacity="1">PIL.PngImagePlugin.ChunkStream</text>
                </g>
                <g id="16">
                  <rect x="60.3358" y="662.388" width="160" height="40" fill="rgb(255,255,255)" fill-opacity="1" stroke="rgb(0,0,0)" stroke-opacity="1" stroke-width="0.5"/>
                  <text x="140.336" y="-679.188" font-size="9.6" text-anchor="middle" transform="scale(1,-1)" stroke-width="0" fill="rgb(0,0,0)" fill-opacity="1">PIL.TiffTags.TagInfo</text>
                </g>
                <g id="17">
                  <rect x="428.336" y="687.388" width="184" height="40" fill="rgb(255,255,255)" fill-opacity="1" stroke="rgb(0,0,0)" stroke-opacity="1" stroke-width="0.5"/>
                  <text x="520.336" y="-704.188" font-size="9.6" text-anchor="middle" transform="scale(1,-1)" stroke-width="0" fill="rgb(0,0,0)" fill-opacity="1">PIL._util.DeferredError</text>
                </g>
                <g id="18">
                  <rect x="642.336" y="687.388" width="120" height="40" fill="rgb(255,255,255)" fill-opacity="1" stroke="rgb(0,0,0)" stroke-opacity="1" stroke-width="0.5"/>
                  <text x="702.336" y="-704.188" font-size="9.6" text-anchor="middle" transform="scale(1,-1)" stroke-width="0" fill="rgb(0,0,0)" fill-opacity="1">PIL._util._util</text>
                </g>
                <g id="19">
                  <rect x="1571.74" y="549.388" width="208" height="40" fill="rgb(255,255,255)" fill-opacity="1" stroke="rgb(0,0,0)" stroke-opacity="1" stroke-width="0.5"/>
                  <text x="1675.74" y="-566.188" font-size="9.6" text-anchor="middle" transform="scale(1,-1)" stroke-width="0" fill="rgb(0,0,0)" fill-opacity="1">scipy.linalg.lapack.lapack</text>
                </g>
              </g>
            </g>
          </g>
        </g>
      </g>
    </g>
  </g>
</svg>
