<?xml version="1.0" standalone="no"?>
<!DOCTYPE svg PUBLIC "-//W3C//DTD SVG 20010904//EN" "http://www.w3.org/TR/2001/REC-SVG-20010904/DTD/svg10.dtd">
<!-- Created using Krita: https://krita.org -->
<svg xmlns="http://www.w3.org/2000/svg" 
    xmlns:xlink="http://www.w3.org/1999/xlink"
    xmlns:krita="http://krita.org/namespaces/svg/krita"
    xmlns:sodipodi="http://sodipodi.sourceforge.net/DTD/sodipodi-0.dtd"
    width="378.24pt"
    height="162.72pt"
    viewBox="0 0 378.24 162.72">
<defs/>
<g id="group0" transform="matrix(2.15548545456055 0 0 2.15548545456055 19.4821536664838 22.4424994564056)" fill="none">
  <path id="shape0" transform="translate(9.61876259729451, 35.09)" fill="none" stroke="#0046aa" stroke-width="1.92" stroke-linecap="square" stroke-linejoin="bevel" d="M43.8125 0L43.7542 0.3149L43.6904 0.6416L43.6238 0.9658L43.5543 1.2875L43.482 1.6069L43.4069 1.9237L43.329 2.2381L43.2482 2.5501L43.1646 2.8597L43.0781 3.1667L42.9889 3.4714L42.8967 3.7736L42.8018 4.0733L42.704 4.3706L42.6034 4.6655L42.4999 4.9579L42.3936 5.2479L42.2845 5.5354L42.1725 5.8205L42.0577 6.1031L41.9401 6.3833L41.8196 6.6611L41.6963 6.9364L41.5702 7.2092L41.4412 7.4796L41.3094 7.7476L41.1748 8.0131L41.0373 8.2762L40.897 8.5368L40.7539 8.795L40.6079 9.0508L40.4591 9.304L40.3074 9.5549L40.153 9.8033L39.9957 10.0493L39.8355 10.2928L39.6725 10.5338L39.5067 10.7725L39.3381 11.0086L39.1666 11.2424L38.9923 11.4737L38.8151 11.7025L38.6173 11.9505L38.4166 12.1946L38.2132 12.4346L38.007 12.6708L37.798 12.9029L37.5862 13.1311L37.3715 13.3553L37.1541 13.5755L36.9339 13.7918L36.7109 14.0041L36.4851 14.2124L36.2565 14.4168L36.025 14.6172L35.7908 14.8136L35.5538 15.0061L35.314 15.1946L35.0714 15.3791L34.826 15.5596L34.5778 15.7362L34.3268 15.9088L34.073 16.0775L33.8164 16.2422L33.557 16.4029L33.2948 16.5596L33.0298 16.7124L32.762 16.8612L32.4914 17.0061L32.2181 17.1469L31.9419 17.2838L31.6629 17.4168L31.3811 17.5458L31.0965 17.6708L30.8091 17.7918L30.519 17.9088L30.226 18.0219L29.9302 18.1311L29.6316 18.2362L29.3302 18.3374L29.0261 18.4346L28.7191 18.5279L28.4093 18.6172L28.0968 18.7025L27.7814 18.7838L27.4632 18.8612L27.1423 18.9346L26.8185 19.0041L26.4919 19.0696L26.1626 19.1311L25.8304 19.1886L25.4955 19.2422L25.1577 19.2918L24.8172 19.3374L24.4738 19.3791L24.1276 19.4168L23.7787 19.4505L23.4269 19.4803L23.0724 19.5061L22.7151 19.5279L22.3549 19.5458L21.992 19.5596L21.6262 19.5696L21.2577 19.5755L20.8863 19.5775L20.535 19.5754L20.1864 19.5691L19.8407 19.5587L19.4977 19.5441L19.1575 19.5252L18.82 19.5023L18.4854 19.4751L18.1535 19.4437L17.8244 19.4082L17.4981 19.3685L17.1746 19.3246L16.8539 19.2765L16.536 19.2243L16.2208 19.1679L15.9084 19.1073L15.5988 19.0425L15.292 18.9735L14.988 18.9004L14.6867 18.823L14.3883 18.7415L14.0926 18.6558L13.7997 18.566L13.5096 18.4719L13.2223 18.3737L12.9377 18.2713L12.656 18.1647L12.377 18.0539L12.1008 17.939L11.8274 17.8199L11.5568 17.6965L11.2889 17.5691L11.0239 17.4374L10.7616 17.3015L10.5021 17.1615L10.2454 17.0173L9.9914 16.8689L9.7403 16.7164L9.4919 16.5596L9.2464 16.3987L9.0036 16.2336L8.7636 16.0643L8.5263 15.8908L8.2919 15.7132L8.0602 15.5314L7.8314 15.3454L7.6053 15.1552L7.382 14.9608L7.1614 14.7623L6.9437 14.5595L6.7288 14.3526L6.5166 14.1415L6.3072 13.9263L6.1006 13.7068L5.8968 13.4832L5.6957 13.2554L5.4975 13.0234L5.302 12.7873L5.1093 12.5469L4.9194 12.3024L4.7323 12.0537L4.5479 11.8008L4.3664 11.5437L4.1876 11.2825L4.0381 11.0569L3.891 10.829L3.7462 10.5988L3.6039 10.3662L3.4639 10.1313L3.3264 9.894L3.1912 9.6544L3.0584 9.4125L2.9281 9.1683L2.8001 8.9217L2.6745 8.6727L2.5513 8.4215L2.4305 8.1679L2.312 7.9119L2.196 7.6537L2.0824 7.3931L1.9711 7.1301L1.8623 6.8648L1.7558 6.5972L1.6518 6.3273L1.5501 6.055L1.4508 5.7804L1.3539 5.5034L1.2594 5.2241L1.1673 4.9425L1.0776 4.6585L0.9903 4.3722L0.9054 4.0836L0.8228 3.7926L0.7427 3.4993L0.665 3.2037L0.5896 2.9057L0.5166 2.6054L0.4461 2.3028L0.3779 1.9978L0.3121 1.6905L0.2487 1.3808L0.1877 1.0688L0.1291 0.7545L0.0729 0.4378L0.019 0.1188L0 0L9.5939 0L9.5949 0.0049L9.6414 0.233L9.6896 0.459L9.7393 0.683L9.7905 0.905L9.8434 1.1249L9.8979 1.3428L9.9539 1.5587L10.0115 1.7726L10.0706 1.9844L10.1314 2.1942L10.1937 2.402L10.2576 2.6077L10.3231 2.8115L10.3902 3.0132L10.4588 3.2129L10.529 3.4105L10.6008 3.6061L10.6742 3.7997L10.7492 3.9913L10.8257 4.1808L10.9038 4.3684L10.9835 4.5538L11.0648 4.7373L11.1476 4.9187L11.2972 5.2339L11.4513 5.5412L11.6097 5.8408L11.7725 6.1326L11.9397 6.4166L12.1113 6.6928L12.2873 6.9613L12.4677 7.2219L12.6525 7.4748L12.8417 7.7199L13.0353 7.9573L13.2333 8.1868L13.4357 8.4086L13.6424 8.6225L13.8536 8.8287L14.0691 9.0272L14.2891 9.2178L14.5134 9.4007L14.7422 9.5757L14.9753 9.743L15.2128 9.9025L15.4548 10.0543L15.7011 10.1982L15.9518 10.3344L16.2069 10.4628L16.4664 10.5834L16.7303 10.6962L16.9986 10.8012L17.2713 10.8985L17.5484 10.988L17.8299 11.0697L18.1157 11.1436L18.406 11.2098L18.7007 11.2681L18.9997 11.3187L19.3032 11.3615L19.611 11.3965L19.9233 11.4237L20.2399 11.4432L20.5609 11.4549L20.8863 11.4587L21.3292 11.454L21.765 11.4397L22.1937 11.4158L22.6154 11.3824L23.0299 11.3394L23.4374 11.2869L23.8377 11.2248L24.231 11.1532L24.6172 11.072L24.9963 10.9813L25.3683 10.8811L25.7333 10.7713L26.0911 10.6519L26.4419 10.523L26.7856 10.3846L27.1222 10.2366L27.4517 10.079L27.7741 9.9119L28.0894 9.7353L28.3977 9.5491L28.6988 9.3533L28.9929 9.148L29.2799 8.9332L29.5598 8.7088L29.8326 8.4749L30.0984 8.2314L30.357 7.9784L30.6086 7.7158L30.853 7.4437L31.0904 7.162L31.3207 6.8708L31.5439 6.57L31.7601 6.2597L31.9691 5.9398L32.1711 5.6104L32.3659 5.2714L32.5537 4.9229L32.7344 4.5648L32.908 4.1972L33.0746 3.82L33.234 3.4333L33.3863 3.0371L33.5316 2.6313L33.6698 2.2159L33.8009 1.791L33.9249 1.3566L34.0418 0.9126L34.1517 0.459L34.2535 0L43.8125 0M62.1251 0L62.1251 4.6037L62.1273 4.9473L62.134 5.2817L62.1451 5.6068L62.1607 5.9226L62.1808 6.2292L62.2053 6.5265L62.2343 6.8146L62.2677 7.0934L62.3056 7.363L62.3479 7.6233L62.3947 7.8744L62.4459 8.1162L62.5016 8.3488L62.5618 8.5721L62.6264 8.7861L62.6954 8.991L62.769 9.1865L62.8469 9.3728L62.9294 9.5499L63.0163 9.7177L63.1076 9.8762L63.247 10.0923L63.3985 10.2966L63.5621 10.4892L63.7377 10.6702L63.9253 10.8395L64.125 10.9971L64.3368 11.1431L64.5606 11.2774L64.7966 11.4L65.0446 11.5109L65.3046 11.6101L65.5766 11.6977L65.8606 11.7736L66.1566 11.8378L66.4646 11.8903L66.7846 11.9312L67.1166 11.9604L67.4616 11.9779L67.8176 11.9837L68.0806 11.9808L68.3426 11.9718L68.6026 11.9569L68.8606 11.9359L69.1176 11.909L69.3736 11.8762L69.6276 11.8373L69.8806 11.7925L70.1316 11.7417L70.3816 11.6849L70.6296 11.6222L70.8766 11.5534L71.1216 11.4787L71.3656 11.398L71.6086 11.3114L71.8496 11.2187L72.0886 11.1201L72.3266 11.0155L72.5636 10.905L72.7986 10.7884L73.0316 10.6659L73.2636 10.5374L73.4946 10.4029L73.7236 10.2625L73.7236 18.3475L73.5566 18.4039L73.3856 18.4587L73.2116 18.512L73.0326 18.5638L72.8506 18.614L72.6636 18.6627L72.4746 18.7098L72.2806 18.7554L72.0826 18.7994L71.8816 18.8419L71.6766 18.8828L71.4676 18.9222L71.2546 18.9601L71.0376 18.9964L70.8176 19.0311L70.5936 19.0643L70.3656 19.096L70.1336 19.1261L69.8976 19.1547L69.6586 19.1818L69.4146 19.2072L69.1676 19.2312L68.9166 19.2536L68.6626 19.2745L68.4036 19.2938L68.1416 19.3115L67.8756 19.3278L67.6056 19.3424L67.3316 19.3556L67.0546 19.3671L66.7726 19.3772L66.4876 19.3857L66.1986 19.3926L65.9066 19.398L65.6096 19.4019L65.3096 19.4042L65.0046 19.405L64.6976 19.4026L64.3935 19.3954L64.0937 19.3835L63.7978 19.3668L63.5059 19.3453L63.2179 19.319L62.9339 19.288L62.6538 19.2521L62.3777 19.2115L62.1056 19.1661L61.8374 19.116L61.5731 19.061L61.3128 19.0013L61.0565 18.9368L60.8041 18.8676L60.5557 18.7935L60.3113 18.7147L60.0707 18.6311L59.8342 18.5427L59.6016 18.4496L59.3729 18.3516L59.1483 18.2489L58.9275 18.1414L58.7108 18.0292L58.4979 17.9121L58.2891 17.7903L58.0842 17.6637L57.8832 17.5323L57.6862 17.3962L57.4932 17.2553L57.3041 17.1095L57.1189 16.9591L56.9378 16.8038L56.7605 16.6438L56.5873 16.479L56.418 16.3094L56.2526 16.135L56.1011 15.9666L55.9536 15.7945L55.8101 15.6188L55.6707 15.4395L55.5353 15.2565L55.404 15.0698L55.2767 14.8795L55.1535 14.6855L55.0343 14.4879L54.9191 14.2866L54.808 14.0817L54.7009 13.8732L54.5979 13.6609L54.4989 13.4451L54.4039 13.2255L54.313 13.0024L54.2261 12.7755L54.1433 12.5451L54.0645 12.3109L53.9897 12.0732L53.919 11.8317L53.8523 11.5866L53.7897 11.3379L53.7311 11.0855L53.6766 10.8295L53.626 10.5698L53.5796 10.3065L53.5371 10.0395L53.4988 9.7688L53.4644 9.4945L53.4341 9.2166L53.4078 8.935L53.3856 8.6498L53.3674 8.3609L53.3533 8.0683L53.3432 7.7721L53.3371 7.4723L53.3351 7.1687L53.3351 0L62.1251 0M104.617 18.7225L93.5536 1.6487L89.3346 6.115L89.3346 18.7L80.5486 18.7L80.5486 0L102.809 0L115.072 18.7C110.19 18.715 106.705 18.7225 104.617 18.7225ZM130.12 0L130.12 4.6037L130.123 4.9473L130.129 5.2817L130.141 5.6068L130.156 5.9226L130.176 6.2292L130.201 6.5265L130.23 6.8146L130.263 7.0934L130.301 7.363L130.343 7.6233L130.39 7.8744L130.441 8.1162L130.497 8.3488L130.557 8.5721L130.622 8.7861L130.691 8.991L130.764 9.1865L130.842 9.3728L130.925 9.5499L131.012 9.7177L131.103 9.8762L131.242 10.0923L131.394 10.2966L131.557 10.4892L131.733 10.6702L131.921 10.8395L132.12 10.9971L132.332 11.1431L132.556 11.2774L132.792 11.4L133.04 11.5109L133.3 11.6101L133.572 11.6977L133.856 11.7736L134.152 11.8378L134.46 11.8903L134.78 11.9312L135.112 11.9604L135.457 11.9779L135.813 11.9837L136.076 11.9808L136.338 11.9718L136.598 11.9569L136.856 11.9359L137.113 11.909L137.369 11.8762L137.623 11.8373L137.876 11.7925L138.127 11.7417L138.377 11.6849L138.625 11.6222L138.872 11.5534L139.117 11.4787L139.361 11.398L139.604 11.3114L139.845 11.2187L140.084 11.1201L140.322 11.0155L140.559 10.905L140.794 10.7884L141.027 10.6659L141.259 10.5374L141.49 10.4029L141.719 10.2625L141.719 18.3475L141.552 18.4039L141.381 18.4587L141.207 18.512L141.028 18.5638L140.846 18.614L140.659 18.6627L140.47 18.7098L140.276 18.7554L140.078 18.7994L139.877 18.8419L139.672 18.8828L139.463 18.9222L139.25 18.9601L139.033 18.9964L138.813 19.0311L138.589 19.0643L138.361 19.096L138.129 19.1261L137.893 19.1547L137.654 19.1818L137.41 19.2072L137.163 19.2312L136.912 19.2536L136.658 19.2745L136.399 19.2938L136.137 19.3115L135.871 19.3278L135.601 19.3424L135.327 19.3556L135.05 19.3671L134.768 19.3772L134.483 19.3857L134.194 19.3926L133.902 19.398L133.605 19.4019L133.305 19.4042L133 19.405L132.693 19.4026L132.389 19.3954L132.089 19.3835L131.793 19.3668L131.501 19.3453L131.213 19.319L130.929 19.288L130.649 19.2521L130.373 19.2115L130.101 19.1661L129.833 19.116L129.569 19.061L129.308 19.0013L129.052 18.9368L128.8 18.8676L128.551 18.7935L128.307 18.7147L128.066 18.6311L127.83 18.5427L127.597 18.4496L127.368 18.3516L127.144 18.2489L126.923 18.1414L126.706 18.0292L126.493 17.9121L126.284 17.7903L126.08 17.6637L125.879 17.5323L125.682 17.3962L125.489 17.2553L125.299 17.1095L125.114 16.9591L124.933 16.8038L124.756 16.6438L124.583 16.479L124.413 16.3094L124.248 16.135L124.096 15.9666L123.949 15.7945L123.806 15.6188L123.666 15.4395L123.531 15.2565L123.399 15.0698L123.272 14.8795L123.149 14.6855L123.03 14.4879L122.915 14.2866L122.803 14.0817L122.696 13.8732L122.593 13.6609L122.494 13.4451L122.399 13.2255L122.308 13.0024L122.222 12.7755L122.139 12.5451L122.06 12.3109L121.985 12.0732L121.914 11.8317L121.848 11.5866L121.785 11.3379L121.727 11.0855L121.672 10.8295L121.621 10.5698L121.575 10.3065L121.533 10.0395L121.494 9.7688L121.46 9.4945L121.429 9.2166L121.403 8.935L121.381 8.6498L121.363 8.3609L121.349 8.0683L121.339 7.7721L121.333 7.4723L121.33 7.1687L121.33 0L130.12 0" sodipodi:nodetypes="ccccccccccccccccccccccccccccccccccccccccccccccccccccccccccccccccccccccccccccccccccccccccccccccccccccccccccccccccccccccccccccccccccccccccccccccccccccccccccccccccccccccccccccccccccccccccccccccccccccccccccccccccccccccccccccccccccccccccccccccccccccccccccccccccccccccccccccccccccccccccccccccccccccccccccccccccccccccccccccccccccccccccccccccccccccccccccccccccccccccccccccccccccccccccccccccccccccccccccccccccccccccccccccccccccccccccccccccccccccccccccccccccccccccccccccccccccccccccccccccccccccccccccccccccccccccccccccccccccccccccccccccccccccccccccccccccccccccccccccccccccccccccccccccccccccccccccccccccccccccccccccccccccccccccccccccccccccccccccccccccccccccccccccccccccccccccccccccccccccccccccccccccccccccccccc"/>
  <rect id="shape01" transform="matrix(0.921169890594172 -0.000759940502957147 -1.15460737475087 1.25751858074373 10.2186823018785 27.531315534246)" fill="#ffb100" fill-rule="evenodd" stroke="#ffb100" stroke-width="1" stroke-linecap="square" stroke-linejoin="bevel" width="159.777667453624" height="8.85035253138185"/>
  <path id="shape1" transform="translate(9.05886259729451, 0)" fill="#0046aa" fill-rule="evenodd" stroke="#0046aa" stroke-width="0.48" stroke-linecap="square" stroke-linejoin="bevel" d="M0 27.6L0.0014 27.2593L0.0056 26.9203L0.0127 26.5831L0.0225 26.2475L0.0352 25.9137L0.0507 25.5816L0.069 25.2512L0.0902 24.9226L0.1141 24.5956L0.1409 24.2704L0.1705 23.9469L0.2029 23.6251L0.2381 23.305L0.2761 22.9867L0.317 22.67L0.3606 22.3551L0.4071 22.0419L0.4564 21.7304L0.5085 21.4206L0.5635 21.1126L0.6212 20.8062L0.6818 20.5016L0.7452 20.1987L0.8114 19.8975L0.8805 19.5981L0.9523 19.3003L1.027 19.0043L1.1044 18.71L1.1847 18.4174L1.2679 18.1265L1.3538 17.8374L1.4425 17.5499L1.5341 17.2642L1.6285 16.9802L1.7257 16.6979L1.8257 16.4173L1.9285 16.1385L2.0342 15.8614L2.1427 15.5859L2.254 15.3122L2.3681 15.0403L2.485 14.77L2.6047 14.5015L2.7273 14.2346L2.8527 13.9695L2.9809 13.7061L3.1119 13.4444L3.2457 13.1845L3.3824 12.9262L3.5218 12.6697L3.6641 12.4149L3.8092 12.1618L3.9571 11.9105L4.1079 11.6608L4.2614 11.4129L4.4178 11.1667L4.577 10.9222L4.739 10.6794L4.9038 10.4383L5.0714 10.199L5.2419 9.9613L5.4152 9.7254L5.5912 9.4912L5.7876 9.2356L5.986 8.984L6.1866 8.7364L6.3894 8.493L6.5942 8.2537L6.8013 8.0185L7.0105 7.7873L7.2218 7.5603L7.4353 7.3373L7.6509 7.1184L7.8686 6.9036L8.0885 6.6929L8.3106 6.4863L8.5348 6.2838L8.7611 6.0854L8.9896 5.8911L9.2202 5.7009L9.453 5.5147L9.6879 5.3327L9.925 5.1547L10.1642 4.9808L10.4055 4.8111L10.649 4.6454L10.8946 4.4838L11.1424 4.3263L11.3924 4.1728L11.6444 4.0235L11.8987 3.8783L12.155 3.7371L12.4135 3.6001L12.6742 3.4671L12.937 3.3383L13.2019 3.2135L13.469 3.0928L13.7382 2.9762L14.0096 2.8637L14.2831 2.7553L14.5588 2.651L14.8366 2.5507L15.1166 2.4546L15.3987 2.3625L15.6829 2.2746L15.9693 2.1907L16.2578 2.1109L16.5485 2.0353L16.8413 1.9637L17.1363 1.8962L17.4334 1.8327L17.7327 1.7734L18.0341 1.7182L18.3376 1.6671L18.6433 1.62L18.9512 1.5771L19.2611 1.5382L19.5733 1.5034L19.8875 1.4727L20.204 1.4461L20.5225 1.4236L20.8432 1.4052L21.1661 1.3909L21.4911 1.3807L21.8182 1.3745L22.1475 1.3725L22.5155 1.3744L22.8805 1.38L23.2427 1.3895L23.602 1.4027L23.9584 1.4197L24.312 1.4404L24.6626 1.465L25.0103 1.4933L25.3552 1.5253L25.6972 1.5612L26.0363 1.6008L26.3725 1.6442L26.7058 1.6914L27.0362 1.7423L27.3637 1.797L27.6884 1.8555L28.0102 1.9178L28.329 1.9838L28.645 2.0536L28.9581 2.1272L29.2683 2.2046L29.5757 2.2857L29.8801 2.3706L30.1816 2.4593L30.4803 2.5518L30.7761 2.648L31.069 2.748L31.359 2.8518L31.6461 2.9593L31.9303 3.0706L32.2117 3.1857L32.4901 3.3046L32.7657 3.4272L33.0384 3.5536L33.3081 3.6838L33.575 3.8178L33.8391 3.9555L34.1002 4.0971L34.3584 4.2423L34.6138 4.3914L34.8663 4.5442L35.1158 4.7008L35.3625 4.8612L35.6063 5.0254L35.8472 5.1933L36.0853 5.365L36.3204 5.5405L36.5527 5.7197L36.782 5.9027L37.0085 6.0895L37.2321 6.2801L37.4528 6.4744L37.6706 6.6725L37.8856 6.8744L38.0976 7.0801L38.3068 7.2895L38.513 7.5027L38.7164 7.7197L38.9169 7.9405L39.1145 8.165L39.3092 8.3933L39.5011 8.6254L39.69 8.8612L39.8572 9.0779L40.0218 9.2972L40.1837 9.519L40.3429 9.7435L40.4994 9.9706L40.6533 10.2003L40.8044 10.4326L40.9529 10.6675L41.0988 10.905L41.2419 11.1451L41.3824 11.3878L41.5202 11.6332L41.6553 11.8811L41.7878 12.1316L41.9175 12.3848L42.0446 12.6405L42.1691 12.8989L42.2908 13.1598L42.4099 13.4234L42.5263 13.6896L42.64 13.9583L42.751 14.2297L42.8594 14.5037L42.9651 14.7803L43.0681 15.0595L43.1685 15.3413L43.2661 15.6257L43.3611 15.9127L43.4534 16.2024L43.5431 16.4946L43.63 16.7894L43.7143 17.0869L43.7959 17.3869L43.8749 17.6896L43.9511 17.9948L44.0247 18.3027L44.0956 18.6131L44.1638 18.9262L44.2294 19.2419L44.2923 19.5602L44.3525 19.8811L44.41 20.2046L44.4649 20.5307L44.517 20.8594L44.5665 21.1907L44.6134 21.5246L44.6575 21.8612L44.699 22.2003L44.7378 22.542L44.7739 22.8864L44.8073 23.2333L44.8381 23.5829L44.8662 23.9351L44.8916 24.2898L44.9144 24.6472L44.9344 25.0072L44.9518 25.3698L44.9666 25.735L44.9786 26.1027L44.988 26.4732L44.9946 26.8462L44.9987 27.2218L45 27.6L44.9986 27.9804L44.9943 28.3584L44.9872 28.734L44.9773 29.1071L44.9646 29.4778L44.949 29.846L44.9306 30.2118L44.9093 30.5751L44.8852 30.936L44.8583 31.2944L44.8285 31.6504L44.7959 32.0039L44.7605 32.355L44.7222 32.7037L44.6811 33.0499L44.6372 33.3937L44.6267 33.47L35.1052 33.47L35.1544 33.1381L35.2218 32.6272L35.282 32.1068L35.3351 31.5769L35.3812 31.0374L35.4202 30.4884L35.4521 29.9298L35.4769 29.3617L35.4946 28.784L35.5052 28.1968L35.5087 27.6L35.5054 27.0297L35.4953 26.4685L35.4785 25.9164L35.4549 25.3735L35.4246 24.8397L35.3876 24.315L35.3438 23.7994L35.2933 23.293L35.2361 22.7956L35.1721 22.3074L35.1014 21.8284L35.024 21.3584L34.9398 20.8976L34.8489 20.4459L34.7513 20.0034L34.6469 19.5699L34.5359 19.1456L34.418 18.7304L34.2935 18.3243L34.1622 17.9274L34.0242 17.5396L33.8794 17.1609L33.7279 16.7913L33.5697 16.4309L33.4047 16.0796L33.2331 15.7374L33.0546 15.4043L32.8695 15.0804L32.6776 14.7656L32.479 14.4599L32.2736 14.1633L32.0616 13.8759L31.8427 13.5975L31.6172 13.3283L31.3849 13.0683L31.1459 12.8173L30.9001 12.5755L30.6477 12.3428L30.3885 12.1193L30.1225 11.9048L29.8498 11.6995L29.5704 11.5033L29.2843 11.3163L28.9914 11.1383L28.6918 10.9695L28.3854 10.8098L28.0724 10.6593L27.7526 10.5178L27.426 10.3855L27.0927 10.2623L26.7527 10.1483L26.406 10.0433L26.0525 9.9475L25.6923 9.8608L25.3254 9.7833L24.9517 9.7148L24.5713 9.6555L24.1842 9.6053L23.7903 9.5642L23.3897 9.5323L22.9824 9.5095L22.5683 9.4958L22.1475 9.4912L21.8265 9.4946L21.5094 9.5048L21.1963 9.5217L20.8872 9.5455L20.5821 9.576L20.281 9.6132L19.9839 9.6573L19.6907 9.7081L19.4015 9.7657L19.1163 9.8301L18.8351 9.9013L18.5579 9.9792L18.2847 10.0639L18.0154 10.1554L17.7501 10.2537L17.4889 10.3587L17.2316 10.4706L16.9782 10.5892L16.7289 10.7145L16.4836 10.8467L16.2422 10.9856L16.0048 11.1313L15.7714 11.2838L15.542 11.4431L15.3166 11.6091L15.0951 11.7819L14.8776 11.9615L14.6642 12.1479L14.4547 12.3411L14.2492 12.541L14.0476 12.7477L13.8501 12.9612L13.6565 13.1814L13.4669 13.4085L13.2814 13.6423L13.0997 13.8829L12.9221 14.1302L12.7485 14.3844L12.5788 14.6453L12.4131 14.913L12.2515 15.1875L12.0937 15.4687L11.9927 15.6559L11.8936 15.8452L11.7966 16.0364L11.7015 16.2297L11.6085 16.425L11.5174 16.6223L11.4284 16.8216L11.3413 17.023L11.2563 17.2264L11.1732 17.4319L11.0922 17.6393L11.0131 17.8488L10.9361 18.0603L10.861 18.2739L10.788 18.4894L10.717 18.707L10.6479 18.9267L10.5809 19.1483L10.5158 19.372L10.4528 19.5977L10.3918 19.8254L10.3327 20.0552L10.2757 20.287L10.2207 20.5208L10.1676 20.7566L10.1166 20.9945L10.0676 21.2344L10.0206 21.4763L9.9755 21.7203L9.9325 21.9662L9.8915 22.2142L9.8525 22.4643L9.8154 22.7163L9.7804 22.9704L9.7474 23.2265L9.7164 23.4847L9.6874 23.7448L9.6603 24.007L9.6353 24.2712L9.6123 24.5375L9.5913 24.8058L9.5723 25.0761L9.5553 25.3484L9.5403 25.6227L9.5273 25.8991L9.5163 26.1775L9.5073 26.458L9.5003 26.7404L9.4952 27.0249L9.4922 27.3115L9.4912 27.6L9.492 27.8868L9.4944 28.1716L9.4983 28.4544L9.5039 28.7351L9.511 29.0138L9.5197 29.2905L9.5299 29.5652L9.5417 29.8378L9.5552 30.1084L9.5701 30.377L9.5867 30.6435L9.6049 30.908L9.6246 31.1705L9.6459 31.431L9.6688 31.6895L9.6932 31.9459L9.7193 32.2003L9.7469 32.4526L9.7761 32.703L9.8068 32.9513L9.8392 33.1976L9.8731 33.4418L9.8772 33.47L0.3328 33.47L0.3062 33.2458L0.2691 32.9105L0.2344 32.5728L0.2021 32.2328L0.1722 31.8904L0.1447 31.5457L0.1196 31.1987L0.0969 30.8493L0.0766 30.4976L0.0586 30.1436L0.0431 29.7872L0.0299 29.4285L0.0191 29.0675L0.0108 28.7041L0.0048 28.3384L0.0012 27.9704L0 27.6M53.895 23.205L49.5337 23.205L49.5337 16.1362L53.895 16.1362L53.895 8.475L62.685 5.2387L62.685 16.1362L73.0195 16.1362L73.0195 23.205L62.685 23.205L62.685 33.47L53.895 33.47L53.895 23.205M81.1085 33.47L81.1085 2.1112L89.8945 0L89.8945 30.585L102.447 16.1362L113.029 16.1362L100.302 30.4125L102.306 33.47L81.1085 33.47M121.889 23.205L117.529 23.205L117.529 16.1362L121.889 16.1362L121.889 8.475L130.679 5.2387L130.679 16.1362L141.014 16.1362L141.014 23.205L130.679 23.205L130.679 33.47L121.889 33.47L121.889 23.205" sodipodi:nodetypes="cccccccccccccccccccccccccccccccccccccccccccccccccccccccccccccccccccccccccccccccccccccccccccccccccccccccccccccccccccccccccccccccccccccccccccccccccccccccccccccccccccccccccccccccccccccccccccccccccccccccccccccccccccccccccccccccccccccccccccccccccccccccccccccccccccccccccccccccccccccccccccccccccccccccccccccccccccccccccccccccccccccccccccccccccccccccccccccccccccccccccccccccccccccccccccccccccccccccccccccccccccccccccccccccccccccccccccccccccccccccccccccccccccccccccccccccccccccccccccccccccccccccccccccccccccccccccccccccccc"/>
 </g>
</svg>
